<?xml version="1.0" encoding="utf-8" standalone="no"?>
<!DOCTYPE svg PUBLIC "-//W3C//DTD SVG 1.1//EN"
  "http://www.w3.org/Graphics/SVG/1.1/DTD/svg11.dtd">
<svg xmlns:xlink="http://www.w3.org/1999/xlink" width="576pt" height="360pt" viewBox="0 0 576 360" xmlns="http://www.w3.org/2000/svg" version="1.1">
 <metadata>
  <rdf:RDF xmlns:dc="http://purl.org/dc/elements/1.1/" xmlns:cc="http://creativecommons.org/ns#" xmlns:rdf="http://www.w3.org/1999/02/22-rdf-syntax-ns#">
   <cc:Work>
    <dc:type rdf:resource="http://purl.org/dc/dcmitype/StillImage"/>
    <dc:date>2026-05-09T16:35:21.732276</dc:date>
    <dc:format>image/svg+xml</dc:format>
    <dc:creator>
     <cc:Agent>
      <dc:title>Matplotlib v3.10.8, https://matplotlib.org/</dc:title>
     </cc:Agent>
    </dc:creator>
   </cc:Work>
  </rdf:RDF>
 </metadata>
 <defs>
  <style type="text/css">*{stroke-linejoin: round; stroke-linecap: butt}</style>
 </defs>
 <g id="figure_1">
  <g id="patch_1">
   <path d="M 0 360 
L 576 360 
L 576 0 
L 0 0 
z
" style="fill: #212946"/>
  </g>
  <g id="axes_1">
   <g id="patch_2">
    <path d="M 72 320.4 
L 518.4 320.4 
L 518.4 43.2 
L 72 43.2 
z
" style="fill: #212946"/>
   </g>
   <g id="matplotlib.axis_1">
    <g id="xtick_1">
     <g id="line2d_1">
      <path d="M 92.290909 320.4 
L 92.290909 43.2 
" clip-path="url(#pf58245a54c)" style="fill: none; stroke: #2a3459; stroke-width: 0.8; stroke-linecap: round"/>
     </g>
     <g id="line2d_2"/>
     <g id="text_1">
      <!-- 0 -->
      <g style="fill: #e6e6e6" transform="translate(89.51044 331.057813) scale(0.1 -0.1)">
       <defs>
        <path id="ArialMT-30" d="M 266 2259 
Q 266 3072 433 3567 
Q 600 4063 929 4331 
Q 1259 4600 1759 4600 
Q 2128 4600 2406 4451 
Q 2684 4303 2865 4023 
Q 3047 3744 3150 3342 
Q 3253 2941 3253 2259 
Q 3253 1453 3087 958 
Q 2922 463 2592 192 
Q 2263 -78 1759 -78 
Q 1097 -78 719 397 
Q 266 969 266 2259 
z
M 844 2259 
Q 844 1131 1108 757 
Q 1372 384 1759 384 
Q 2147 384 2411 759 
Q 2675 1134 2675 2259 
Q 2675 3391 2411 3762 
Q 2147 4134 1753 4134 
Q 1366 4134 1134 3806 
Q 844 3388 844 2259 
z
" transform="scale(0.015625)"/>
       </defs>
       <use xlink:href="#ArialMT-30"/>
      </g>
     </g>
    </g>
    <g id="xtick_2">
     <g id="line2d_3">
      <path d="M 183.486006 320.4 
L 183.486006 43.2 
" clip-path="url(#pf58245a54c)" style="fill: none; stroke: #2a3459; stroke-width: 0.8; stroke-linecap: round"/>
     </g>
     <g id="line2d_4"/>
     <g id="text_2">
      <!-- 200 -->
      <g style="fill: #e6e6e6" transform="translate(175.1446 331.057813) scale(0.1 -0.1)">
       <defs>
        <path id="ArialMT-32" d="M 3222 541 
L 3222 0 
L 194 0 
Q 188 203 259 391 
Q 375 700 629 1000 
Q 884 1300 1366 1694 
Q 2113 2306 2375 2664 
Q 2638 3022 2638 3341 
Q 2638 3675 2398 3904 
Q 2159 4134 1775 4134 
Q 1369 4134 1125 3890 
Q 881 3647 878 3216 
L 300 3275 
Q 359 3922 746 4261 
Q 1134 4600 1788 4600 
Q 2447 4600 2831 4234 
Q 3216 3869 3216 3328 
Q 3216 3053 3103 2787 
Q 2991 2522 2730 2228 
Q 2469 1934 1863 1422 
Q 1356 997 1212 845 
Q 1069 694 975 541 
L 3222 541 
z
" transform="scale(0.015625)"/>
       </defs>
       <use xlink:href="#ArialMT-32"/>
       <use xlink:href="#ArialMT-30" transform="translate(55.615234 0)"/>
       <use xlink:href="#ArialMT-30" transform="translate(111.230469 0)"/>
      </g>
     </g>
    </g>
    <g id="xtick_3">
     <g id="line2d_5">
      <path d="M 274.681103 320.4 
L 274.681103 43.2 
" clip-path="url(#pf58245a54c)" style="fill: none; stroke: #2a3459; stroke-width: 0.8; stroke-linecap: round"/>
     </g>
     <g id="line2d_6"/>
     <g id="text_3">
      <!-- 400 -->
      <g style="fill: #e6e6e6" transform="translate(266.339697 331.057813) scale(0.1 -0.1)">
       <defs>
        <path id="ArialMT-34" d="M 2069 0 
L 2069 1097 
L 81 1097 
L 81 1613 
L 2172 4581 
L 2631 4581 
L 2631 1613 
L 3250 1613 
L 3250 1097 
L 2631 1097 
L 2631 0 
L 2069 0 
z
M 2069 1613 
L 2069 3678 
L 634 1613 
L 2069 1613 
z
" transform="scale(0.015625)"/>
       </defs>
       <use xlink:href="#ArialMT-34"/>
       <use xlink:href="#ArialMT-30" transform="translate(55.615234 0)"/>
       <use xlink:href="#ArialMT-30" transform="translate(111.230469 0)"/>
      </g>
     </g>
    </g>
    <g id="xtick_4">
     <g id="line2d_7">
      <path d="M 365.8762 320.4 
L 365.8762 43.2 
" clip-path="url(#pf58245a54c)" style="fill: none; stroke: #2a3459; stroke-width: 0.8; stroke-linecap: round"/>
     </g>
     <g id="line2d_8"/>
     <g id="text_4">
      <!-- 600 -->
      <g style="fill: #e6e6e6" transform="translate(357.534794 331.057813) scale(0.1 -0.1)">
       <defs>
        <path id="ArialMT-36" d="M 3184 3459 
L 2625 3416 
Q 2550 3747 2413 3897 
Q 2184 4138 1850 4138 
Q 1581 4138 1378 3988 
Q 1113 3794 959 3422 
Q 806 3050 800 2363 
Q 1003 2672 1297 2822 
Q 1591 2972 1913 2972 
Q 2475 2972 2870 2558 
Q 3266 2144 3266 1488 
Q 3266 1056 3080 686 
Q 2894 316 2569 119 
Q 2244 -78 1831 -78 
Q 1128 -78 684 439 
Q 241 956 241 2144 
Q 241 3472 731 4075 
Q 1159 4600 1884 4600 
Q 2425 4600 2770 4297 
Q 3116 3994 3184 3459 
z
M 888 1484 
Q 888 1194 1011 928 
Q 1134 663 1356 523 
Q 1578 384 1822 384 
Q 2178 384 2434 671 
Q 2691 959 2691 1453 
Q 2691 1928 2437 2201 
Q 2184 2475 1800 2475 
Q 1419 2475 1153 2201 
Q 888 1928 888 1484 
z
" transform="scale(0.015625)"/>
       </defs>
       <use xlink:href="#ArialMT-36"/>
       <use xlink:href="#ArialMT-30" transform="translate(55.615234 0)"/>
       <use xlink:href="#ArialMT-30" transform="translate(111.230469 0)"/>
      </g>
     </g>
    </g>
    <g id="xtick_5">
     <g id="line2d_9">
      <path d="M 457.071297 320.4 
L 457.071297 43.2 
" clip-path="url(#pf58245a54c)" style="fill: none; stroke: #2a3459; stroke-width: 0.8; stroke-linecap: round"/>
     </g>
     <g id="line2d_10"/>
     <g id="text_5">
      <!-- 800 -->
      <g style="fill: #e6e6e6" transform="translate(448.729891 331.057813) scale(0.1 -0.1)">
       <defs>
        <path id="ArialMT-38" d="M 1131 2484 
Q 781 2613 612 2850 
Q 444 3088 444 3419 
Q 444 3919 803 4259 
Q 1163 4600 1759 4600 
Q 2359 4600 2725 4251 
Q 3091 3903 3091 3403 
Q 3091 3084 2923 2848 
Q 2756 2613 2416 2484 
Q 2838 2347 3058 2040 
Q 3278 1734 3278 1309 
Q 3278 722 2862 322 
Q 2447 -78 1769 -78 
Q 1091 -78 675 323 
Q 259 725 259 1325 
Q 259 1772 486 2073 
Q 713 2375 1131 2484 
z
M 1019 3438 
Q 1019 3113 1228 2906 
Q 1438 2700 1772 2700 
Q 2097 2700 2305 2904 
Q 2513 3109 2513 3406 
Q 2513 3716 2298 3927 
Q 2084 4138 1766 4138 
Q 1444 4138 1231 3931 
Q 1019 3725 1019 3438 
z
M 838 1322 
Q 838 1081 952 856 
Q 1066 631 1291 507 
Q 1516 384 1775 384 
Q 2178 384 2440 643 
Q 2703 903 2703 1303 
Q 2703 1709 2433 1975 
Q 2163 2241 1756 2241 
Q 1359 2241 1098 1978 
Q 838 1716 838 1322 
z
" transform="scale(0.015625)"/>
       </defs>
       <use xlink:href="#ArialMT-38"/>
       <use xlink:href="#ArialMT-30" transform="translate(55.615234 0)"/>
       <use xlink:href="#ArialMT-30" transform="translate(111.230469 0)"/>
      </g>
     </g>
    </g>
   </g>
   <g id="matplotlib.axis_2">
    <g id="ytick_1">
     <g id="line2d_11">
      <path d="M 72 307.8 
L 518.4 307.8 
" clip-path="url(#pf58245a54c)" style="fill: none; stroke: #2a3459; stroke-width: 0.8; stroke-linecap: round"/>
     </g>
     <g id="line2d_12"/>
     <g id="text_6">
      <!-- 0 -->
      <g style="fill: #e6e6e6" transform="translate(62.939062 311.378906) scale(0.1 -0.1)">
       <use xlink:href="#ArialMT-30"/>
      </g>
     </g>
    </g>
    <g id="ytick_2">
     <g id="line2d_13">
      <path d="M 72 258.612876 
L 518.4 258.612876 
" clip-path="url(#pf58245a54c)" style="fill: none; stroke: #2a3459; stroke-width: 0.8; stroke-linecap: round"/>
     </g>
     <g id="line2d_14"/>
     <g id="text_7">
      <!-- 100 -->
      <g style="fill: #e6e6e6" transform="translate(51.817188 262.191782) scale(0.1 -0.1)">
       <defs>
        <path id="ArialMT-31" d="M 2384 0 
L 1822 0 
L 1822 3584 
Q 1619 3391 1289 3197 
Q 959 3003 697 2906 
L 697 3450 
Q 1169 3672 1522 3987 
Q 1875 4303 2022 4600 
L 2384 4600 
L 2384 0 
z
" transform="scale(0.015625)"/>
       </defs>
       <use xlink:href="#ArialMT-31"/>
       <use xlink:href="#ArialMT-30" transform="translate(55.615234 0)"/>
       <use xlink:href="#ArialMT-30" transform="translate(111.230469 0)"/>
      </g>
     </g>
    </g>
    <g id="ytick_3">
     <g id="line2d_15">
      <path d="M 72 209.425752 
L 518.4 209.425752 
" clip-path="url(#pf58245a54c)" style="fill: none; stroke: #2a3459; stroke-width: 0.8; stroke-linecap: round"/>
     </g>
     <g id="line2d_16"/>
     <g id="text_8">
      <!-- 200 -->
      <g style="fill: #e6e6e6" transform="translate(51.817188 213.004658) scale(0.1 -0.1)">
       <use xlink:href="#ArialMT-32"/>
       <use xlink:href="#ArialMT-30" transform="translate(55.615234 0)"/>
       <use xlink:href="#ArialMT-30" transform="translate(111.230469 0)"/>
      </g>
     </g>
    </g>
    <g id="ytick_4">
     <g id="line2d_17">
      <path d="M 72 160.238627 
L 518.4 160.238627 
" clip-path="url(#pf58245a54c)" style="fill: none; stroke: #2a3459; stroke-width: 0.8; stroke-linecap: round"/>
     </g>
     <g id="line2d_18"/>
     <g id="text_9">
      <!-- 300 -->
      <g style="fill: #e6e6e6" transform="translate(51.817188 163.817534) scale(0.1 -0.1)">
       <defs>
        <path id="ArialMT-33" d="M 269 1209 
L 831 1284 
Q 928 806 1161 595 
Q 1394 384 1728 384 
Q 2125 384 2398 659 
Q 2672 934 2672 1341 
Q 2672 1728 2419 1979 
Q 2166 2231 1775 2231 
Q 1616 2231 1378 2169 
L 1441 2663 
Q 1497 2656 1531 2656 
Q 1891 2656 2178 2843 
Q 2466 3031 2466 3422 
Q 2466 3731 2256 3934 
Q 2047 4138 1716 4138 
Q 1388 4138 1169 3931 
Q 950 3725 888 3313 
L 325 3413 
Q 428 3978 793 4289 
Q 1159 4600 1703 4600 
Q 2078 4600 2393 4439 
Q 2709 4278 2876 4000 
Q 3044 3722 3044 3409 
Q 3044 3113 2884 2869 
Q 2725 2625 2413 2481 
Q 2819 2388 3044 2092 
Q 3269 1797 3269 1353 
Q 3269 753 2831 336 
Q 2394 -81 1725 -81 
Q 1122 -81 723 278 
Q 325 638 269 1209 
z
" transform="scale(0.015625)"/>
       </defs>
       <use xlink:href="#ArialMT-33"/>
       <use xlink:href="#ArialMT-30" transform="translate(55.615234 0)"/>
       <use xlink:href="#ArialMT-30" transform="translate(111.230469 0)"/>
      </g>
     </g>
    </g>
    <g id="ytick_5">
     <g id="line2d_19">
      <path d="M 72 111.051503 
L 518.4 111.051503 
" clip-path="url(#pf58245a54c)" style="fill: none; stroke: #2a3459; stroke-width: 0.8; stroke-linecap: round"/>
     </g>
     <g id="line2d_20"/>
     <g id="text_10">
      <!-- 400 -->
      <g style="fill: #e6e6e6" transform="translate(51.817188 114.630409) scale(0.1 -0.1)">
       <use xlink:href="#ArialMT-34"/>
       <use xlink:href="#ArialMT-30" transform="translate(55.615234 0)"/>
       <use xlink:href="#ArialMT-30" transform="translate(111.230469 0)"/>
      </g>
     </g>
    </g>
    <g id="ytick_6">
     <g id="line2d_21">
      <path d="M 72 61.864379 
L 518.4 61.864379 
" clip-path="url(#pf58245a54c)" style="fill: none; stroke: #2a3459; stroke-width: 0.8; stroke-linecap: round"/>
     </g>
     <g id="line2d_22"/>
     <g id="text_11">
      <!-- 500 -->
      <g style="fill: #e6e6e6" transform="translate(51.817188 65.443285) scale(0.1 -0.1)">
       <defs>
        <path id="ArialMT-35" d="M 266 1200 
L 856 1250 
Q 922 819 1161 601 
Q 1400 384 1738 384 
Q 2144 384 2425 690 
Q 2706 997 2706 1503 
Q 2706 1984 2436 2262 
Q 2166 2541 1728 2541 
Q 1456 2541 1237 2417 
Q 1019 2294 894 2097 
L 366 2166 
L 809 4519 
L 3088 4519 
L 3088 3981 
L 1259 3981 
L 1013 2750 
Q 1425 3038 1878 3038 
Q 2478 3038 2890 2622 
Q 3303 2206 3303 1553 
Q 3303 931 2941 478 
Q 2500 -78 1738 -78 
Q 1113 -78 717 272 
Q 322 622 266 1200 
z
" transform="scale(0.015625)"/>
       </defs>
       <use xlink:href="#ArialMT-35"/>
       <use xlink:href="#ArialMT-30" transform="translate(55.615234 0)"/>
       <use xlink:href="#ArialMT-30" transform="translate(111.230469 0)"/>
      </g>
     </g>
    </g>
   </g>
   <g id="FillBetweenPolyCollection_1">
    <defs>
     <path id="m1a10715ff3" d="M 92.290909 -52.2 
L 92.290909 -55.766067 
L 92.746885 -87.262205 
L 93.20286 -56.09808 
L 93.658836 -78.318363 
L 94.114811 -56.159563 
L 94.570787 -56.360395 
L 95.026762 -77.709672 
L 95.482737 -62.566186 
L 95.938713 -57.67615 
L 96.394688 -66.990962 
L 96.850664 -60.41425 
L 97.306639 -65.259181 
L 97.762615 -56.159563 
L 98.21859 -67.583273 
L 98.674566 -56.063255 
L 99.130541 -60.06994 
L 99.586517 -66.52575 
L 100.042492 -58.594326 
L 100.498468 -61.053682 
L 100.954443 -55.75377 
L 101.410419 -64.988652 
L 101.866394 -58.594326 
L 102.32237 -56.149333 
L 102.778345 -69.661429 
L 103.234321 -62.566186 
L 103.690296 -67.638609 
L 104.146272 -55.75377 
L 104.602247 -181.562137 
L 105.058223 -56.075552 
L 105.514198 -56.083717 
L 105.970174 -65.835064 
L 106.426149 -124.269368 
L 106.882125 -56.012002 
L 107.3381 -57.364648 
L 107.794076 -92.617453 
L 108.250051 -77.777305 
L 108.706027 -55.755836 
L 109.162002 -56.159563 
L 109.617978 -61.053682 
L 110.073953 -57.729469 
L 110.529928 -56.86048 
L 110.985904 -62.529296 
L 111.441879 -56.083717 
L 111.897855 -72.651613 
L 112.35383 -56.075552 
L 112.809806 -56.159563 
L 113.265781 -59.824004 
L 113.721757 -56.012002 
L 114.177732 -62.863375 
L 114.633708 -60.955308 
L 115.089683 -71.72114 
L 115.545659 -56.036596 
L 116.001634 -89.940887 
L 116.45761 -64.988652 
L 116.913585 -82.685786 
L 117.369561 -69.661429 
L 117.825536 -57.364648 
L 118.281512 -55.755836 
L 118.737487 -65.849427 
L 119.193463 -75.268761 
L 119.649438 -55.755836 
L 120.105414 -91.549699 
L 120.561389 -93.258952 
L 121.017365 -65.923208 
L 121.47334 -65.835064 
L 121.929316 -59.698971 
L 122.385291 -57.364648 
L 122.841267 -56.212833 
L 123.297242 -56.09808 
L 123.753218 -56.460835 
L 124.209193 -57.364648 
L 124.665169 -75.268761 
L 125.121144 -88.352536 
L 125.57712 -59.309605 
L 126.033095 -79.988659 
L 126.48907 -55.962815 
L 126.945046 -56.083717 
L 127.401021 -56.159563 
L 127.856997 -66.464266 
L 128.312972 -58.336094 
L 128.768948 -56.626841 
L 129.224923 -56.872777 
L 129.680899 -56.030447 
L 130.136874 -75.367136 
L 130.59285 -57.364648 
L 131.048825 -59.996159 
L 131.504801 -69.108074 
L 131.960776 -56.159563 
L 132.416752 -181.562137 
L 132.872727 -56.159563 
L 133.328703 -56.159563 
L 133.784678 -56.063255 
L 134.240654 -82.290223 
L 134.696629 -62.320251 
L 135.152605 -55.766067 
L 135.60858 -56.159563 
L 136.064556 -69.245404 
L 136.520531 -83.364126 
L 136.976507 -63.513039 
L 137.432482 -64.988652 
L 137.888458 -56.083717 
L 138.344433 -56.083717 
L 138.800409 -90.215499 
L 139.256384 -56.456752 
L 139.71236 -56.09808 
L 140.168335 -56.083717 
L 140.624311 -55.962815 
L 141.080286 -56.024299 
L 141.536261 -56.083717 
L 141.992237 -64.07869 
L 142.448212 -77.777305 
L 142.904188 -59.309605 
L 143.360163 -56.159563 
L 143.816139 -57.032635 
L 144.272114 -59.311622 
L 144.72809 -56.09808 
L 145.184065 -56.012002 
L 145.640041 -62.529296 
L 146.096016 -173.948363 
L 146.551992 -67.583273 
L 147.007967 -88.352536 
L 147.463943 -56.159563 
L 147.919918 -66.990962 
L 148.375894 -58.594326 
L 148.831869 -90.215499 
L 149.287845 -57.729469 
L 149.74382 -56.012002 
L 150.199796 -55.712797 
L 150.655771 -63.197405 
L 151.111747 -55.630802 
L 151.567722 -56.083717 
L 152.023698 -55.667692 
L 152.479673 -59.332133 
L 152.935649 -64.988652 
L 153.391624 -58.594326 
L 153.8476 -59.600596 
L 154.303575 -65.127999 
L 154.759551 -78.318363 
L 155.215526 -56.73343 
L 155.671502 -91.156202 
L 156.127477 -59.698971 
L 156.583453 -56.012002 
L 157.039428 -59.996159 
L 157.495403 -55.520131 
L 157.951379 -57.856519 
L 158.407354 -70.276268 
L 158.86333 -56.03453 
L 159.319305 -69.108074 
L 159.775281 -64.988652 
L 160.231256 -58.594326 
L 160.687232 -58.360687 
L 161.143207 -84.958625 
L 161.599183 -56.159563 
L 162.055158 -59.332133 
L 162.511134 -55.796808 
L 162.967109 -82.390663 
L 163.423085 -56.003788 
L 163.87906 -56.159563 
L 164.335036 -56.460835 
L 164.791011 -86.409645 
L 165.246987 -60.119127 
L 165.702962 -59.946972 
L 166.158938 -56.024299 
L 166.614913 -56.460835 
L 167.070889 -71.72114 
L 167.526864 -62.295657 
L 167.98284 -79.252918 
L 168.438815 -65.923208 
L 168.894791 -64.951762 
L 169.350766 -79.988659 
L 169.806742 -68.677687 
L 170.262717 -66.52575 
L 170.718693 -57.67615 
L 171.174668 -56.09808 
L 171.630644 -67.298381 
L 172.086619 -56.063255 
L 172.542594 -64.726337 
L 172.99857 -66.322853 
L 173.454545 -58.594326 
L 173.910521 -52.2 
L 174.366496 -86.409645 
L 174.822472 -59.602662 
L 175.278447 -67.638609 
L 175.734423 -71.382978 
L 176.190398 -63.033464 
L 176.646374 -76.793562 
L 177.102349 -59.824004 
L 177.558325 -65.259181 
L 178.0143 -59.824004 
L 178.470276 -56.083717 
L 178.926251 -58.594326 
L 179.382227 -58.594326 
L 179.838202 -56.063255 
L 180.294178 -64.988652 
L 180.750153 -65.835064 
L 181.206129 -124.269368 
L 181.662104 -56.012002 
L 182.11808 -56.333784 
L 182.574055 -56.012002 
L 183.030031 -58.594326 
L 183.486006 -56.872777 
L 183.941982 -86.409645 
L 184.397957 -55.395097 
L 184.853933 -55.75377 
L 185.309908 -56.159563 
L 185.765884 -57.346203 
L 186.221859 -59.996159 
L 186.677835 -61.441031 
L 187.13381 -56.012002 
L 187.589785 -67.448009 
L 188.045761 -55.667692 
L 188.501736 -62.529296 
L 188.957712 -55.766067 
L 189.413687 -58.594326 
L 189.869663 -56.012002 
L 190.325638 -107.916715 
L 190.781614 -56.09808 
L 191.237589 -65.480524 
L 191.693565 -89.725693 
L 192.14954 -57.364648 
L 192.605516 -56.159563 
L 193.061491 -58.594326 
L 193.517467 -56.159563 
L 193.973442 -56.083717 
L 194.429418 -96.468412 
L 194.885393 -56.798996 
L 195.341369 -57.364648 
L 195.797344 -55.766067 
L 196.25332 -58.594326 
L 196.709295 -64.726337 
L 197.165271 -93.258952 
L 197.621246 -56.024299 
L 198.077222 -58.840262 
L 198.533197 -67.638609 
L 198.989173 -57.364648 
L 199.445148 -55.913628 
L 199.901124 -64.988652 
L 200.357099 -65.11162 
L 200.813075 -57.364648 
L 201.26905 -58.237719 
L 201.725026 -59.309605 
L 202.181001 -59.824004 
L 202.636977 -57.364648 
L 203.092952 -55.704583 
L 203.548927 -55.75377 
L 204.004903 -96.468412 
L 204.460878 -56.024299 
L 204.916854 -59.332133 
L 205.372829 -78.0499 
L 205.828805 -64.988652 
L 206.28478 -55.766067 
L 206.740756 -57.346203 
L 207.196731 -65.259181 
L 207.652707 -60.119127 
L 208.108682 -62.141947 
L 208.564658 -59.698971 
L 209.020633 -91.156202 
L 209.476609 -94.746862 
L 209.932584 -304.2 
L 210.38856 -64.988652 
L 210.844535 -56.012002 
L 211.300511 -67.638609 
L 211.756486 -91.377544 
L 212.212462 -52.2 
L 212.668437 -56.012002 
L 213.124413 -57.364648 
L 213.580388 -71.72114 
L 214.036364 -56.024299 
L 214.492339 -127.683791 
L 214.948315 -118.91412 
L 215.40429 -67.448009 
L 215.860266 -52.2 
L 216.316241 -61.791489 
L 216.772217 -66.808576 
L 217.228192 -56.012002 
L 217.684168 -90.545446 
L 218.140143 -56.012002 
L 218.596118 -52.2 
L 219.052094 -66.52575 
L 219.508069 -62.160393 
L 219.964045 -56.012002 
L 220.42002 -56.063255 
L 220.875996 -56.872777 
L 221.331971 -56.159563 
L 221.787947 -64.988652 
L 222.243922 -56.460835 
L 222.699898 -56.872777 
L 223.155873 -56.083717 
L 223.611849 -58.594326 
L 224.067824 -56.012002 
L 224.5238 -90.984047 
L 224.979775 -96.999239 
L 225.435751 -58.532842 
L 225.891726 -56.55306 
L 226.347702 -56.083717 
L 226.803677 -65.835064 
L 227.259653 -55.755836 
L 227.715628 -126.743087 
L 228.171604 -67.202073 
L 228.627579 -173.948363 
L 229.083555 -56.012002 
L 229.53953 -63.636006 
L 229.995506 -52.2 
L 230.451481 -58.27461 
L 230.907457 -56.159563 
L 231.363432 -126.743087 
L 231.819408 -106.740307 
L 232.275383 -105.764778 
L 232.731359 -64.00491 
L 233.187334 -80.201836 
L 233.643309 -93.103176 
L 234.099285 -181.254717 
L 234.55526 -64.988652 
L 235.011236 -56.083717 
L 235.467211 -65.11162 
L 235.923187 -56.063255 
L 236.379162 -64.988652 
L 236.835138 -59.086197 
L 237.291113 -133.293189 
L 237.747089 -118.356682 
L 238.203064 -55.766067 
L 238.65904 -56.083717 
L 239.115015 -58.27461 
L 239.570991 -66.464266 
L 240.026966 -86.409645 
L 240.482942 -118.91412 
L 240.938917 -55.268047 
L 241.394893 -58.594326 
L 241.850868 -62.295657 
L 242.306844 -80.718301 
L 242.762819 -63.636006 
L 243.218795 -66.21833 
L 243.67477 -127.683791 
L 244.130746 -61.053682 
L 244.586721 -117.938592 
L 245.042697 -56.083717 
L 245.498672 -84.958625 
L 245.954648 -118.356682 
L 246.410623 -56.159563 
L 246.866599 -69.661429 
L 247.322574 -64.988652 
L 247.77855 -181.562137 
L 248.234525 -58.594326 
L 248.690501 -58.594326 
L 249.146476 -58.594326 
L 249.602451 -58.594326 
L 250.058427 -58.594326 
L 250.514402 -60.119127 
L 250.970378 -60.020753 
L 251.426353 -56.460835 
L 251.882329 -56.737512 
L 252.338304 -69.415493 
L 252.79428 -55.755836 
L 253.250255 -60.955308 
L 253.706231 -55.75377 
L 254.162206 -56.872777 
L 254.618182 -79.252918 
L 255.074157 -58.594326 
L 255.530133 -56.075552 
L 255.986108 -56.075552 
L 256.442084 -65.923208 
L 256.898059 -65.835064 
L 257.354035 -59.309605 
L 257.81001 -55.667692 
L 258.265986 -59.824004 
L 258.721961 -55.766067 
L 259.177937 -89.213311 
L 259.633912 -55.755836 
L 260.089888 -56.012002 
L 260.545863 -86.286677 
L 261.001839 -79.470178 
L 261.457814 -55.395097 
L 261.91379 -56.159563 
L 262.369765 -118.91412 
L 262.825741 -62.566186 
L 263.281716 -92.617453 
L 263.737692 -55.766067 
L 264.193667 -156.230768 
L 264.649642 -54.173633 
L 265.105618 -56.024299 
L 265.561593 -164.113004 
L 266.017569 -59.94289 
L 266.473544 -56.09808 
L 266.92952 -77.777305 
L 267.385495 -56.083717 
L 267.841471 -88.352536 
L 268.297446 -75.268761 
L 268.753422 -58.594326 
L 269.209397 -56.001771 
L 269.665373 -58.102455 
L 270.121348 -111.224549 
L 270.577324 -56.03453 
L 271.033299 -56.09808 
L 271.489275 -107.916715 
L 271.94525 -60.41425 
L 272.401226 -56.03453 
L 272.857201 -56.063255 
L 273.313177 -64.988652 
L 273.769152 -57.364648 
L 274.225128 -58.422171 
L 274.681103 -56.09808 
L 275.137079 -56.159563 
L 275.593054 -57.032635 
L 276.04903 -59.996159 
L 276.505005 -56.460835 
L 276.960981 -62.529296 
L 277.416956 -56.012002 
L 277.872932 -61.422586 
L 278.328907 -56.024299 
L 278.784883 -64.726337 
L 279.240858 -56.083717 
L 279.696834 -55.573401 
L 280.152809 -96.468412 
L 280.608784 -52.2 
L 281.06476 -56.09808 
L 281.520735 -56.159563 
L 281.976711 -68.185815 
L 282.432686 -58.594326 
L 282.888662 -58.594326 
L 283.344637 -64.07869 
L 283.800613 -56.083717 
L 284.256588 -56.003788 
L 284.712564 -56.073486 
L 285.168539 -59.282946 
L 285.624515 -62.141947 
L 286.08049 -55.766067 
L 286.536466 -64.988652 
L 286.992441 -64.988652 
L 287.448417 -56.012002 
L 287.904392 -56.159563 
L 288.360368 -65.259181 
L 288.816343 -60.119127 
L 289.272319 -64.988652 
L 289.728294 -55.704583 
L 290.18427 -79.695602 
L 290.640245 -111.224549 
L 291.096221 -69.108074 
L 291.552196 -61.422586 
L 292.008172 -181.562137 
L 292.464147 -57.364648 
L 292.920123 -65.11162 
L 293.376098 -56.872777 
L 293.832074 -56.024299 
L 294.288049 -58.594326 
L 294.744025 -56.190305 
L 295.2 -92.463744 
L 295.655975 -61.791489 
L 296.111951 -65.259181 
L 296.567926 -61.672604 
L 297.023902 -67.202073 
L 297.479877 -65.849427 
L 297.935853 -62.021046 
L 298.391828 -65.849427 
L 298.847804 -96.027794 
L 299.303779 -56.159563 
L 299.759755 -56.083717 
L 300.21573 -65.259181 
L 300.671706 -77.709672 
L 301.127681 -57.364648 
L 301.583657 -56.012002 
L 302.039632 -65.259181 
L 302.495608 -56.159563 
L 302.951583 -71.137043 
L 303.407559 -58.594326 
L 303.863534 -56.159563 
L 304.31951 -55.667692 
L 304.775485 -52.2 
L 305.231461 -65.259181 
L 305.687436 -55.999705 
L 306.143412 -61.672604 
L 306.599387 -55.766067 
L 307.055363 -56.460835 
L 307.511338 -65.849427 
L 307.967314 -58.983741 
L 308.423289 -57.038783 
L 308.879265 -77.777305 
L 309.33524 -62.529296 
L 309.791216 -55.665626 
L 310.247191 -55.899265 
L 310.703166 -58.243868 
L 311.159142 -75.268761 
L 311.615117 -52.2 
L 312.071093 -56.159563 
L 312.527068 -56.915816 
L 312.983044 -96.999239 
L 313.439019 -64.726337 
L 313.894995 -96.468412 
L 314.35097 -66.808576 
L 314.806946 -56.159563 
L 315.262921 -60.020753 
L 315.718897 -62.021046 
L 316.174872 -55.766067 
L 316.630848 -67.202073 
L 317.086823 -76.549692 
L 317.542799 -56.159563 
L 317.998774 -59.311622 
L 318.45475 -90.697139 
L 318.910725 -59.627256 
L 319.366701 -126.743087 
L 319.822676 -56.03453 
L 320.278652 -56.460835 
L 320.734627 -56.012002 
L 321.190603 -55.952584 
L 321.646578 -56.915816 
L 322.102554 -94.746862 
L 322.558529 -105.764778 
L 323.014505 -64.988652 
L 323.47048 -65.259181 
L 323.926456 -63.2794 
L 324.382431 -79.988659 
L 324.838407 -56.012002 
L 325.294382 -56.159563 
L 325.750358 -65.130065 
L 326.206333 -81.417152 
L 326.662308 -55.886968 
L 327.118284 -68.933853 
L 327.574259 -57.364648 
L 328.030235 -64.07869 
L 328.48621 -64.988652 
L 328.942186 -56.083717 
L 329.398161 -98.189961 
L 329.854137 -56.083717 
L 330.310112 -55.75377 
L 330.766088 -80.718301 
L 331.222063 -55.755836 
L 331.678039 -56.012002 
L 332.134014 -57.364648 
L 332.58999 -161.286811 
L 333.045965 -56.09808 
L 333.501941 -57.856519 
L 333.957916 -64.988652 
L 334.413892 -55.755836 
L 334.869867 -55.755836 
L 335.325843 -63.197405 
L 335.781818 -56.460835 
L 336.237794 -65.11162 
L 336.693769 -65.259181 
L 337.149745 -104.547397 
L 337.60572 -59.332133 
L 338.061696 -76.547626 
L 338.517671 -87.122858 
L 338.973647 -67.583273 
L 339.429622 -67.583273 
L 339.885598 -64.988652 
L 340.341573 -104.547397 
L 340.797549 -64.988652 
L 341.253524 -64.988652 
L 341.709499 -59.018565 
L 342.165475 -62.295657 
L 342.62145 -70.276268 
L 343.077426 -106.740307 
L 343.533401 -64.988652 
L 343.989377 -56.050958 
L 344.445352 -55.75377 
L 344.901328 -56.024299 
L 345.357303 -65.259181 
L 345.813279 -71.678101 
L 346.269254 -164.113004 
L 346.72523 -91.377544 
L 347.181205 -60.75856 
L 347.637181 -56.012002 
L 348.093156 -56.083717 
L 348.549132 -58.840262 
L 349.005107 -56.159563 
L 349.461083 -56.159563 
L 349.917058 -64.07869 
L 350.373034 -56.083717 
L 350.829009 -62.566186 
L 351.284985 -55.755836 
L 351.74096 -56.063255 
L 352.196936 -57.364648 
L 352.652911 -77.521138 
L 353.108887 -65.179252 
L 353.564862 -56.012002 
L 354.020838 -56.159563 
L 354.476813 -59.332133 
L 354.932789 -58.594326 
L 355.388764 -79.695602 
L 355.84474 -59.311622 
L 356.300715 -56.09808 
L 356.756691 -66.956137 
L 357.212666 -106.740307 
L 357.668641 -64.988652 
L 358.124617 -71.936334 
L 358.580592 -56.485428 
L 359.036568 -91.377544 
L 359.492543 -59.578069 
L 359.948519 -91.156202 
L 360.404494 -56.159563 
L 360.86047 -56.159563 
L 361.316445 -55.704583 
L 361.772421 -90.697139 
L 362.228396 -55.766067 
L 362.684372 -56.012002 
L 363.140347 -64.988652 
L 363.596323 -64.07869 
L 364.052298 -68.431751 
L 364.508274 -52.2 
L 364.964249 -55.75377 
L 365.420225 -80.201836 
L 365.8762 -65.480524 
L 366.332176 -56.083717 
L 366.788151 -73.055341 
L 367.244127 -56.159563 
L 367.700102 -65.259181 
L 368.156078 -59.848598 
L 368.612053 -56.083717 
L 369.068029 -67.202073 
L 369.524004 -72.651613 
L 369.97998 -127.683791 
L 370.435955 -67.583273 
L 370.891931 -55.667692 
L 371.347906 -59.824004 
L 371.803882 -56.012002 
L 372.259857 -56.159563 
L 372.715832 -84.171631 
L 373.171808 -59.282946 
L 373.627783 -60.119127 
L 374.083759 -71.382978 
L 374.539734 -57.364648 
L 374.99571 -59.309605 
L 375.451685 -78.0499 
L 375.907661 -59.94289 
L 376.363636 -56.063255 
L 376.819612 -60.119127 
L 377.275587 -68.097672 
L 377.731563 -58.27461 
L 378.187538 -90.545446 
L 378.643514 -56.083717 
L 379.099489 -56.003788 
L 379.555465 -66.956137 
L 380.01144 -55.669758 
L 380.467416 -67.202073 
L 380.923391 -52.2 
L 381.379367 -65.923208 
L 381.835342 -58.594326 
L 382.291318 -56.09808 
L 382.747293 -65.11162 
L 383.203269 -71.72114 
L 383.659244 -60.119127 
L 384.11522 -56.063255 
L 384.571195 -86.286677 
L 385.027171 -65.923208 
L 385.483146 -79.988659 
L 385.939122 -61.672604 
L 386.395097 -89.940887 
L 386.851073 -56.083717 
L 387.307048 -69.661429 
L 387.763023 -55.913628 
L 388.218999 -55.913628 
L 388.674974 -56.083717 
L 389.13095 -63.513039 
L 389.586925 -56.348098 
L 390.042901 -56.050958 
L 390.498876 -55.520131 
L 390.954852 -88.352536 
L 391.410827 -56.083717 
L 391.866803 -59.824004 
L 392.322778 -58.594326 
L 392.778754 -107.916715 
L 393.234729 -117.938592 
L 393.690705 -55.75377 
L 394.14668 -64.785755 
L 394.602656 -55.886968 
L 395.058631 -56.09808 
L 395.514607 -88.352536 
L 395.970582 -58.594326 
L 396.426558 -56.024299 
L 396.882533 -56.159563 
L 397.338509 -77.777305 
L 397.794484 -71.382978 
L 398.25046 -77.777305 
L 398.706435 -57.364648 
L 399.162411 -58.594326 
L 399.618386 -52.2 
L 400.074362 -56.024299 
L 400.530337 -56.159563 
L 400.986313 -57.040849 
L 401.442288 -75.268761 
L 401.898264 -304.2 
L 402.354239 -56.202602 
L 402.810215 -89.940887 
L 403.26619 -56.737512 
L 403.722165 -75.268761 
L 404.178141 -71.382978 
L 404.634116 -72.651613 
L 405.090092 -71.72114 
L 405.546067 -57.202724 
L 406.002043 -56.03453 
L 406.458018 -156.150839 
L 406.913994 -80.236661 
L 407.369969 -58.799289 
L 407.825945 -79.988659 
L 408.28192 -55.75377 
L 408.737896 -65.259181 
L 409.193871 -58.840262 
L 409.649847 -56.159563 
L 410.105822 -56.003788 
L 410.561798 -106.740307 
L 411.017773 -55.962815 
L 411.473749 -164.113004 
L 411.929724 -65.130065 
L 412.3857 -59.309605 
L 412.841675 -56.00792 
L 413.297651 -56.063255 
L 413.753626 -64.988652 
L 414.209602 -58.840262 
L 414.665577 -65.130065 
L 415.121553 -126.743087 
L 415.577528 -59.698971 
L 416.033504 -76.549692 
L 416.489479 -65.259181 
L 416.945455 -77.777305 
L 417.40143 -56.864563 
L 417.857406 -58.594326 
L 418.313381 -55.962815 
L 418.769356 -164.113004 
L 419.225332 -57.364648 
L 419.681307 -59.824004 
L 420.137283 -56.024299 
L 420.593258 -68.431751 
L 421.049234 -55.669758 
L 421.505209 -58.594326 
L 421.961185 -58.594326 
L 422.41716 -78.318363 
L 422.873136 -56.460835 
L 423.329111 -62.529296 
L 423.785087 -56.005854 
L 424.241062 -64.988652 
L 424.697038 -56.09808 
L 425.153013 -156.150839 
L 425.608989 -61.441031 
L 426.064964 -52.2 
L 426.52094 -58.594326 
L 426.976915 -58.594326 
L 427.432891 -60.119127 
L 427.888866 -69.108074 
L 428.344842 -304.2 
L 428.800817 -56.083717 
L 429.256793 -56.083717 
L 429.712768 -66.956137 
L 430.168744 -90.984047 
L 430.624719 -181.254717 
L 431.080695 -60.119127 
L 431.53667 -56.09808 
L 431.992646 -87.122858 
L 432.448621 -62.160393 
L 432.904597 -58.594326 
L 433.360572 -78.318363 
L 433.816547 -56.012002 
L 434.272523 -63.513039 
L 434.728498 -58.336094 
L 435.184474 -56.872777 
L 435.640449 -56.083717 
L 436.096425 -84.171631 
L 436.5524 -59.332133 
L 437.008376 -56.03453 
L 437.464351 -57.856519 
L 437.920327 -56.159563 
L 438.376302 -94.746862 
L 438.832278 -59.332133 
L 439.288253 -55.704583 
L 439.744229 -55.755836 
L 440.200204 -111.224549 
L 440.65618 -56.024299 
L 441.112155 -90.545446 
L 441.568131 -71.678101 
L 442.024106 -56.012002 
L 442.480082 -64.07869 
L 442.936057 -56.313273 
L 443.392033 -56.872777 
L 443.848008 -56.063255 
L 444.303984 -57.364648 
L 444.759959 -55.75377 
L 445.215935 -63.513039 
L 445.67191 -56.012002 
L 446.127886 -56.012002 
L 446.583861 -58.336094 
L 447.039837 -56.005854 
L 447.495812 -156.150839 
L 447.951788 -55.755836 
L 448.407763 -80.236661 
L 448.863739 -66.956137 
L 449.319714 -63.734381 
L 449.775689 -55.667692 
L 450.231665 -55.766067 
L 450.68764 -55.886968 
L 451.143616 -66.52575 
L 451.599591 -62.320251 
L 452.055567 -91.156202 
L 452.511542 -56.012002 
L 452.967518 -64.988652 
L 453.423493 -86.409645 
L 453.879469 -67.298381 
L 454.335444 -56.083717 
L 454.79142 -58.594326 
L 455.247395 -64.953828 
L 455.703371 -56.471066 
L 456.159346 -55.755836 
L 456.615322 -64.07869 
L 457.071297 -58.594326 
L 457.527273 -65.11162 
L 457.983248 -111.224549 
L 458.439224 -56.38912 
L 458.895199 -55.630802 
L 459.351175 -56.024299 
L 459.80715 -52.2 
L 460.263126 -56.024299 
L 460.719101 -58.594326 
L 461.175077 -78.318363 
L 461.631052 -56.079634 
L 462.087028 -64.07869 
L 462.543003 -57.364648 
L 462.998979 -67.583273 
L 463.454954 -56.159563 
L 463.91093 -52.2 
L 464.366905 -56.09808 
L 464.82288 -70.401302 
L 465.278856 -55.37257 
L 465.734831 -65.923208 
L 466.190807 -98.189961 
L 466.646782 -56.460835 
L 467.102758 -52.2 
L 467.558733 -58.336094 
L 468.014709 -71.72114 
L 468.470684 -55.618505 
L 468.92666 -79.988659 
L 469.382635 -70.401302 
L 469.838611 -56.012002 
L 470.294586 -91.549699 
L 470.750562 -59.309605 
L 471.206537 -61.422586 
L 471.662513 -55.755836 
L 472.118488 -56.063255 
L 472.574464 -56.282531 
L 473.030439 -93.103176 
L 473.486415 -56.460835 
L 473.94239 -56.159563 
L 474.398366 -79.988659 
L 474.854341 -66.808576 
L 475.310317 -56.09808 
L 475.766292 -57.364648 
L 476.222268 -67.448009 
L 476.678243 -55.366421 
L 477.134219 -56.460835 
L 477.590194 -55.913628 
L 478.04617 -86.409645 
L 478.502145 -56.083717 
L 478.958121 -68.431751 
L 479.414096 -96.027794 
L 479.870072 -67.583273 
L 480.326047 -56.024299 
L 480.782022 -59.698971 
L 481.237998 -71.579727 
L 481.693973 -64.988652 
L 482.149949 -56.798996 
L 482.605924 -133.293189 
L 483.0619 -65.259181 
L 483.517875 -61.672604 
L 483.973851 -55.755836 
L 484.429826 -59.139467 
L 484.885802 -57.856519 
L 485.341777 -64.953828 
L 485.797753 -86.409645 
L 486.253728 -58.594326 
L 486.709704 -58.594326 
L 487.165679 -59.016499 
L 487.621655 -77.037432 
L 488.07763 -56.872777 
L 488.533606 -57.67615 
L 488.989581 -56.083717 
L 489.445557 -78.0499 
L 489.901532 -54.659356 
L 490.357508 -56.626841 
L 490.813483 -64.00491 
L 491.269459 -55.75377 
L 491.725434 -57.042866 
L 492.18141 -56.083717 
L 492.637385 -56.083717 
L 493.093361 -93.103176 
L 493.549336 -64.988652 
L 494.005312 -56.083717 
L 494.461287 -57.372862 
L 494.917263 -57.364648 
L 495.373238 -55.667692 
L 495.829213 -66.52575 
L 496.285189 -58.594326 
L 496.741164 -66.956137 
L 497.19714 -63.734381 
L 497.653115 -66.956137 
L 498.109091 -56.012002 
L 498.109091 -52.2 
L 498.109091 -52.2 
L 497.653115 -52.2 
L 497.19714 -52.2 
L 496.741164 -52.2 
L 496.285189 -52.2 
L 495.829213 -52.2 
L 495.373238 -52.2 
L 494.917263 -52.2 
L 494.461287 -52.2 
L 494.005312 -52.2 
L 493.549336 -52.2 
L 493.093361 -52.2 
L 492.637385 -52.2 
L 492.18141 -52.2 
L 491.725434 -52.2 
L 491.269459 -52.2 
L 490.813483 -52.2 
L 490.357508 -52.2 
L 489.901532 -52.2 
L 489.445557 -52.2 
L 488.989581 -52.2 
L 488.533606 -52.2 
L 488.07763 -52.2 
L 487.621655 -52.2 
L 487.165679 -52.2 
L 486.709704 -52.2 
L 486.253728 -52.2 
L 485.797753 -52.2 
L 485.341777 -52.2 
L 484.885802 -52.2 
L 484.429826 -52.2 
L 483.973851 -52.2 
L 483.517875 -52.2 
L 483.0619 -52.2 
L 482.605924 -52.2 
L 482.149949 -52.2 
L 481.693973 -52.2 
L 481.237998 -52.2 
L 480.782022 -52.2 
L 480.326047 -52.2 
L 479.870072 -52.2 
L 479.414096 -52.2 
L 478.958121 -52.2 
L 478.502145 -52.2 
L 478.04617 -52.2 
L 477.590194 -52.2 
L 477.134219 -52.2 
L 476.678243 -52.2 
L 476.222268 -52.2 
L 475.766292 -52.2 
L 475.310317 -52.2 
L 474.854341 -52.2 
L 474.398366 -52.2 
L 473.94239 -52.2 
L 473.486415 -52.2 
L 473.030439 -52.2 
L 472.574464 -52.2 
L 472.118488 -52.2 
L 471.662513 -52.2 
L 471.206537 -52.2 
L 470.750562 -52.2 
L 470.294586 -52.2 
L 469.838611 -52.2 
L 469.382635 -52.2 
L 468.92666 -52.2 
L 468.470684 -52.2 
L 468.014709 -52.2 
L 467.558733 -52.2 
L 467.102758 -52.2 
L 466.646782 -52.2 
L 466.190807 -52.2 
L 465.734831 -52.2 
L 465.278856 -52.2 
L 464.82288 -52.2 
L 464.366905 -52.2 
L 463.91093 -52.2 
L 463.454954 -52.2 
L 462.998979 -52.2 
L 462.543003 -52.2 
L 462.087028 -52.2 
L 461.631052 -52.2 
L 461.175077 -52.2 
L 460.719101 -52.2 
L 460.263126 -52.2 
L 459.80715 -52.2 
L 459.351175 -52.2 
L 458.895199 -52.2 
L 458.439224 -52.2 
L 457.983248 -52.2 
L 457.527273 -52.2 
L 457.071297 -52.2 
L 456.615322 -52.2 
L 456.159346 -52.2 
L 455.703371 -52.2 
L 455.247395 -52.2 
L 454.79142 -52.2 
L 454.335444 -52.2 
L 453.879469 -52.2 
L 453.423493 -52.2 
L 452.967518 -52.2 
L 452.511542 -52.2 
L 452.055567 -52.2 
L 451.599591 -52.2 
L 451.143616 -52.2 
L 450.68764 -52.2 
L 450.231665 -52.2 
L 449.775689 -52.2 
L 449.319714 -52.2 
L 448.863739 -52.2 
L 448.407763 -52.2 
L 447.951788 -52.2 
L 447.495812 -52.2 
L 447.039837 -52.2 
L 446.583861 -52.2 
L 446.127886 -52.2 
L 445.67191 -52.2 
L 445.215935 -52.2 
L 444.759959 -52.2 
L 444.303984 -52.2 
L 443.848008 -52.2 
L 443.392033 -52.2 
L 442.936057 -52.2 
L 442.480082 -52.2 
L 442.024106 -52.2 
L 441.568131 -52.2 
L 441.112155 -52.2 
L 440.65618 -52.2 
L 440.200204 -52.2 
L 439.744229 -52.2 
L 439.288253 -52.2 
L 438.832278 -52.2 
L 438.376302 -52.2 
L 437.920327 -52.2 
L 437.464351 -52.2 
L 437.008376 -52.2 
L 436.5524 -52.2 
L 436.096425 -52.2 
L 435.640449 -52.2 
L 435.184474 -52.2 
L 434.728498 -52.2 
L 434.272523 -52.2 
L 433.816547 -52.2 
L 433.360572 -52.2 
L 432.904597 -52.2 
L 432.448621 -52.2 
L 431.992646 -52.2 
L 431.53667 -52.2 
L 431.080695 -52.2 
L 430.624719 -52.2 
L 430.168744 -52.2 
L 429.712768 -52.2 
L 429.256793 -52.2 
L 428.800817 -52.2 
L 428.344842 -52.2 
L 427.888866 -52.2 
L 427.432891 -52.2 
L 426.976915 -52.2 
L 426.52094 -52.2 
L 426.064964 -52.2 
L 425.608989 -52.2 
L 425.153013 -52.2 
L 424.697038 -52.2 
L 424.241062 -52.2 
L 423.785087 -52.2 
L 423.329111 -52.2 
L 422.873136 -52.2 
L 422.41716 -52.2 
L 421.961185 -52.2 
L 421.505209 -52.2 
L 421.049234 -52.2 
L 420.593258 -52.2 
L 420.137283 -52.2 
L 419.681307 -52.2 
L 419.225332 -52.2 
L 418.769356 -52.2 
L 418.313381 -52.2 
L 417.857406 -52.2 
L 417.40143 -52.2 
L 416.945455 -52.2 
L 416.489479 -52.2 
L 416.033504 -52.2 
L 415.577528 -52.2 
L 415.121553 -52.2 
L 414.665577 -52.2 
L 414.209602 -52.2 
L 413.753626 -52.2 
L 413.297651 -52.2 
L 412.841675 -52.2 
L 412.3857 -52.2 
L 411.929724 -52.2 
L 411.473749 -52.2 
L 411.017773 -52.2 
L 410.561798 -52.2 
L 410.105822 -52.2 
L 409.649847 -52.2 
L 409.193871 -52.2 
L 408.737896 -52.2 
L 408.28192 -52.2 
L 407.825945 -52.2 
L 407.369969 -52.2 
L 406.913994 -52.2 
L 406.458018 -52.2 
L 406.002043 -52.2 
L 405.546067 -52.2 
L 405.090092 -52.2 
L 404.634116 -52.2 
L 404.178141 -52.2 
L 403.722165 -52.2 
L 403.26619 -52.2 
L 402.810215 -52.2 
L 402.354239 -52.2 
L 401.898264 -52.2 
L 401.442288 -52.2 
L 400.986313 -52.2 
L 400.530337 -52.2 
L 400.074362 -52.2 
L 399.618386 -52.2 
L 399.162411 -52.2 
L 398.706435 -52.2 
L 398.25046 -52.2 
L 397.794484 -52.2 
L 397.338509 -52.2 
L 396.882533 -52.2 
L 396.426558 -52.2 
L 395.970582 -52.2 
L 395.514607 -52.2 
L 395.058631 -52.2 
L 394.602656 -52.2 
L 394.14668 -52.2 
L 393.690705 -52.2 
L 393.234729 -52.2 
L 392.778754 -52.2 
L 392.322778 -52.2 
L 391.866803 -52.2 
L 391.410827 -52.2 
L 390.954852 -52.2 
L 390.498876 -52.2 
L 390.042901 -52.2 
L 389.586925 -52.2 
L 389.13095 -52.2 
L 388.674974 -52.2 
L 388.218999 -52.2 
L 387.763023 -52.2 
L 387.307048 -52.2 
L 386.851073 -52.2 
L 386.395097 -52.2 
L 385.939122 -52.2 
L 385.483146 -52.2 
L 385.027171 -52.2 
L 384.571195 -52.2 
L 384.11522 -52.2 
L 383.659244 -52.2 
L 383.203269 -52.2 
L 382.747293 -52.2 
L 382.291318 -52.2 
L 381.835342 -52.2 
L 381.379367 -52.2 
L 380.923391 -52.2 
L 380.467416 -52.2 
L 380.01144 -52.2 
L 379.555465 -52.2 
L 379.099489 -52.2 
L 378.643514 -52.2 
L 378.187538 -52.2 
L 377.731563 -52.2 
L 377.275587 -52.2 
L 376.819612 -52.2 
L 376.363636 -52.2 
L 375.907661 -52.2 
L 375.451685 -52.2 
L 374.99571 -52.2 
L 374.539734 -52.2 
L 374.083759 -52.2 
L 373.627783 -52.2 
L 373.171808 -52.2 
L 372.715832 -52.2 
L 372.259857 -52.2 
L 371.803882 -52.2 
L 371.347906 -52.2 
L 370.891931 -52.2 
L 370.435955 -52.2 
L 369.97998 -52.2 
L 369.524004 -52.2 
L 369.068029 -52.2 
L 368.612053 -52.2 
L 368.156078 -52.2 
L 367.700102 -52.2 
L 367.244127 -52.2 
L 366.788151 -52.2 
L 366.332176 -52.2 
L 365.8762 -52.2 
L 365.420225 -52.2 
L 364.964249 -52.2 
L 364.508274 -52.2 
L 364.052298 -52.2 
L 363.596323 -52.2 
L 363.140347 -52.2 
L 362.684372 -52.2 
L 362.228396 -52.2 
L 361.772421 -52.2 
L 361.316445 -52.2 
L 360.86047 -52.2 
L 360.404494 -52.2 
L 359.948519 -52.2 
L 359.492543 -52.2 
L 359.036568 -52.2 
L 358.580592 -52.2 
L 358.124617 -52.2 
L 357.668641 -52.2 
L 357.212666 -52.2 
L 356.756691 -52.2 
L 356.300715 -52.2 
L 355.84474 -52.2 
L 355.388764 -52.2 
L 354.932789 -52.2 
L 354.476813 -52.2 
L 354.020838 -52.2 
L 353.564862 -52.2 
L 353.108887 -52.2 
L 352.652911 -52.2 
L 352.196936 -52.2 
L 351.74096 -52.2 
L 351.284985 -52.2 
L 350.829009 -52.2 
L 350.373034 -52.2 
L 349.917058 -52.2 
L 349.461083 -52.2 
L 349.005107 -52.2 
L 348.549132 -52.2 
L 348.093156 -52.2 
L 347.637181 -52.2 
L 347.181205 -52.2 
L 346.72523 -52.2 
L 346.269254 -52.2 
L 345.813279 -52.2 
L 345.357303 -52.2 
L 344.901328 -52.2 
L 344.445352 -52.2 
L 343.989377 -52.2 
L 343.533401 -52.2 
L 343.077426 -52.2 
L 342.62145 -52.2 
L 342.165475 -52.2 
L 341.709499 -52.2 
L 341.253524 -52.2 
L 340.797549 -52.2 
L 340.341573 -52.2 
L 339.885598 -52.2 
L 339.429622 -52.2 
L 338.973647 -52.2 
L 338.517671 -52.2 
L 338.061696 -52.2 
L 337.60572 -52.2 
L 337.149745 -52.2 
L 336.693769 -52.2 
L 336.237794 -52.2 
L 335.781818 -52.2 
L 335.325843 -52.2 
L 334.869867 -52.2 
L 334.413892 -52.2 
L 333.957916 -52.2 
L 333.501941 -52.2 
L 333.045965 -52.2 
L 332.58999 -52.2 
L 332.134014 -52.2 
L 331.678039 -52.2 
L 331.222063 -52.2 
L 330.766088 -52.2 
L 330.310112 -52.2 
L 329.854137 -52.2 
L 329.398161 -52.2 
L 328.942186 -52.2 
L 328.48621 -52.2 
L 328.030235 -52.2 
L 327.574259 -52.2 
L 327.118284 -52.2 
L 326.662308 -52.2 
L 326.206333 -52.2 
L 325.750358 -52.2 
L 325.294382 -52.2 
L 324.838407 -52.2 
L 324.382431 -52.2 
L 323.926456 -52.2 
L 323.47048 -52.2 
L 323.014505 -52.2 
L 322.558529 -52.2 
L 322.102554 -52.2 
L 321.646578 -52.2 
L 321.190603 -52.2 
L 320.734627 -52.2 
L 320.278652 -52.2 
L 319.822676 -52.2 
L 319.366701 -52.2 
L 318.910725 -52.2 
L 318.45475 -52.2 
L 317.998774 -52.2 
L 317.542799 -52.2 
L 317.086823 -52.2 
L 316.630848 -52.2 
L 316.174872 -52.2 
L 315.718897 -52.2 
L 315.262921 -52.2 
L 314.806946 -52.2 
L 314.35097 -52.2 
L 313.894995 -52.2 
L 313.439019 -52.2 
L 312.983044 -52.2 
L 312.527068 -52.2 
L 312.071093 -52.2 
L 311.615117 -52.2 
L 311.159142 -52.2 
L 310.703166 -52.2 
L 310.247191 -52.2 
L 309.791216 -52.2 
L 309.33524 -52.2 
L 308.879265 -52.2 
L 308.423289 -52.2 
L 307.967314 -52.2 
L 307.511338 -52.2 
L 307.055363 -52.2 
L 306.599387 -52.2 
L 306.143412 -52.2 
L 305.687436 -52.2 
L 305.231461 -52.2 
L 304.775485 -52.2 
L 304.31951 -52.2 
L 303.863534 -52.2 
L 303.407559 -52.2 
L 302.951583 -52.2 
L 302.495608 -52.2 
L 302.039632 -52.2 
L 301.583657 -52.2 
L 301.127681 -52.2 
L 300.671706 -52.2 
L 300.21573 -52.2 
L 299.759755 -52.2 
L 299.303779 -52.2 
L 298.847804 -52.2 
L 298.391828 -52.2 
L 297.935853 -52.2 
L 297.479877 -52.2 
L 297.023902 -52.2 
L 296.567926 -52.2 
L 296.111951 -52.2 
L 295.655975 -52.2 
L 295.2 -52.2 
L 294.744025 -52.2 
L 294.288049 -52.2 
L 293.832074 -52.2 
L 293.376098 -52.2 
L 292.920123 -52.2 
L 292.464147 -52.2 
L 292.008172 -52.2 
L 291.552196 -52.2 
L 291.096221 -52.2 
L 290.640245 -52.2 
L 290.18427 -52.2 
L 289.728294 -52.2 
L 289.272319 -52.2 
L 288.816343 -52.2 
L 288.360368 -52.2 
L 287.904392 -52.2 
L 287.448417 -52.2 
L 286.992441 -52.2 
L 286.536466 -52.2 
L 286.08049 -52.2 
L 285.624515 -52.2 
L 285.168539 -52.2 
L 284.712564 -52.2 
L 284.256588 -52.2 
L 283.800613 -52.2 
L 283.344637 -52.2 
L 282.888662 -52.2 
L 282.432686 -52.2 
L 281.976711 -52.2 
L 281.520735 -52.2 
L 281.06476 -52.2 
L 280.608784 -52.2 
L 280.152809 -52.2 
L 279.696834 -52.2 
L 279.240858 -52.2 
L 278.784883 -52.2 
L 278.328907 -52.2 
L 277.872932 -52.2 
L 277.416956 -52.2 
L 276.960981 -52.2 
L 276.505005 -52.2 
L 276.04903 -52.2 
L 275.593054 -52.2 
L 275.137079 -52.2 
L 274.681103 -52.2 
L 274.225128 -52.2 
L 273.769152 -52.2 
L 273.313177 -52.2 
L 272.857201 -52.2 
L 272.401226 -52.2 
L 271.94525 -52.2 
L 271.489275 -52.2 
L 271.033299 -52.2 
L 270.577324 -52.2 
L 270.121348 -52.2 
L 269.665373 -52.2 
L 269.209397 -52.2 
L 268.753422 -52.2 
L 268.297446 -52.2 
L 267.841471 -52.2 
L 267.385495 -52.2 
L 266.92952 -52.2 
L 266.473544 -52.2 
L 266.017569 -52.2 
L 265.561593 -52.2 
L 265.105618 -52.2 
L 264.649642 -52.2 
L 264.193667 -52.2 
L 263.737692 -52.2 
L 263.281716 -52.2 
L 262.825741 -52.2 
L 262.369765 -52.2 
L 261.91379 -52.2 
L 261.457814 -52.2 
L 261.001839 -52.2 
L 260.545863 -52.2 
L 260.089888 -52.2 
L 259.633912 -52.2 
L 259.177937 -52.2 
L 258.721961 -52.2 
L 258.265986 -52.2 
L 257.81001 -52.2 
L 257.354035 -52.2 
L 256.898059 -52.2 
L 256.442084 -52.2 
L 255.986108 -52.2 
L 255.530133 -52.2 
L 255.074157 -52.2 
L 254.618182 -52.2 
L 254.162206 -52.2 
L 253.706231 -52.2 
L 253.250255 -52.2 
L 252.79428 -52.2 
L 252.338304 -52.2 
L 251.882329 -52.2 
L 251.426353 -52.2 
L 250.970378 -52.2 
L 250.514402 -52.2 
L 250.058427 -52.2 
L 249.602451 -52.2 
L 249.146476 -52.2 
L 248.690501 -52.2 
L 248.234525 -52.2 
L 247.77855 -52.2 
L 247.322574 -52.2 
L 246.866599 -52.2 
L 246.410623 -52.2 
L 245.954648 -52.2 
L 245.498672 -52.2 
L 245.042697 -52.2 
L 244.586721 -52.2 
L 244.130746 -52.2 
L 243.67477 -52.2 
L 243.218795 -52.2 
L 242.762819 -52.2 
L 242.306844 -52.2 
L 241.850868 -52.2 
L 241.394893 -52.2 
L 240.938917 -52.2 
L 240.482942 -52.2 
L 240.026966 -52.2 
L 239.570991 -52.2 
L 239.115015 -52.2 
L 238.65904 -52.2 
L 238.203064 -52.2 
L 237.747089 -52.2 
L 237.291113 -52.2 
L 236.835138 -52.2 
L 236.379162 -52.2 
L 235.923187 -52.2 
L 235.467211 -52.2 
L 235.011236 -52.2 
L 234.55526 -52.2 
L 234.099285 -52.2 
L 233.643309 -52.2 
L 233.187334 -52.2 
L 232.731359 -52.2 
L 232.275383 -52.2 
L 231.819408 -52.2 
L 231.363432 -52.2 
L 230.907457 -52.2 
L 230.451481 -52.2 
L 229.995506 -52.2 
L 229.53953 -52.2 
L 229.083555 -52.2 
L 228.627579 -52.2 
L 228.171604 -52.2 
L 227.715628 -52.2 
L 227.259653 -52.2 
L 226.803677 -52.2 
L 226.347702 -52.2 
L 225.891726 -52.2 
L 225.435751 -52.2 
L 224.979775 -52.2 
L 224.5238 -52.2 
L 224.067824 -52.2 
L 223.611849 -52.2 
L 223.155873 -52.2 
L 222.699898 -52.2 
L 222.243922 -52.2 
L 221.787947 -52.2 
L 221.331971 -52.2 
L 220.875996 -52.2 
L 220.42002 -52.2 
L 219.964045 -52.2 
L 219.508069 -52.2 
L 219.052094 -52.2 
L 218.596118 -52.2 
L 218.140143 -52.2 
L 217.684168 -52.2 
L 217.228192 -52.2 
L 216.772217 -52.2 
L 216.316241 -52.2 
L 215.860266 -52.2 
L 215.40429 -52.2 
L 214.948315 -52.2 
L 214.492339 -52.2 
L 214.036364 -52.2 
L 213.580388 -52.2 
L 213.124413 -52.2 
L 212.668437 -52.2 
L 212.212462 -52.2 
L 211.756486 -52.2 
L 211.300511 -52.2 
L 210.844535 -52.2 
L 210.38856 -52.2 
L 209.932584 -52.2 
L 209.476609 -52.2 
L 209.020633 -52.2 
L 208.564658 -52.2 
L 208.108682 -52.2 
L 207.652707 -52.2 
L 207.196731 -52.2 
L 206.740756 -52.2 
L 206.28478 -52.2 
L 205.828805 -52.2 
L 205.372829 -52.2 
L 204.916854 -52.2 
L 204.460878 -52.2 
L 204.004903 -52.2 
L 203.548927 -52.2 
L 203.092952 -52.2 
L 202.636977 -52.2 
L 202.181001 -52.2 
L 201.725026 -52.2 
L 201.26905 -52.2 
L 200.813075 -52.2 
L 200.357099 -52.2 
L 199.901124 -52.2 
L 199.445148 -52.2 
L 198.989173 -52.2 
L 198.533197 -52.2 
L 198.077222 -52.2 
L 197.621246 -52.2 
L 197.165271 -52.2 
L 196.709295 -52.2 
L 196.25332 -52.2 
L 195.797344 -52.2 
L 195.341369 -52.2 
L 194.885393 -52.2 
L 194.429418 -52.2 
L 193.973442 -52.2 
L 193.517467 -52.2 
L 193.061491 -52.2 
L 192.605516 -52.2 
L 192.14954 -52.2 
L 191.693565 -52.2 
L 191.237589 -52.2 
L 190.781614 -52.2 
L 190.325638 -52.2 
L 189.869663 -52.2 
L 189.413687 -52.2 
L 188.957712 -52.2 
L 188.501736 -52.2 
L 188.045761 -52.2 
L 187.589785 -52.2 
L 187.13381 -52.2 
L 186.677835 -52.2 
L 186.221859 -52.2 
L 185.765884 -52.2 
L 185.309908 -52.2 
L 184.853933 -52.2 
L 184.397957 -52.2 
L 183.941982 -52.2 
L 183.486006 -52.2 
L 183.030031 -52.2 
L 182.574055 -52.2 
L 182.11808 -52.2 
L 181.662104 -52.2 
L 181.206129 -52.2 
L 180.750153 -52.2 
L 180.294178 -52.2 
L 179.838202 -52.2 
L 179.382227 -52.2 
L 178.926251 -52.2 
L 178.470276 -52.2 
L 178.0143 -52.2 
L 177.558325 -52.2 
L 177.102349 -52.2 
L 176.646374 -52.2 
L 176.190398 -52.2 
L 175.734423 -52.2 
L 175.278447 -52.2 
L 174.822472 -52.2 
L 174.366496 -52.2 
L 173.910521 -52.2 
L 173.454545 -52.2 
L 172.99857 -52.2 
L 172.542594 -52.2 
L 172.086619 -52.2 
L 171.630644 -52.2 
L 171.174668 -52.2 
L 170.718693 -52.2 
L 170.262717 -52.2 
L 169.806742 -52.2 
L 169.350766 -52.2 
L 168.894791 -52.2 
L 168.438815 -52.2 
L 167.98284 -52.2 
L 167.526864 -52.2 
L 167.070889 -52.2 
L 166.614913 -52.2 
L 166.158938 -52.2 
L 165.702962 -52.2 
L 165.246987 -52.2 
L 164.791011 -52.2 
L 164.335036 -52.2 
L 163.87906 -52.2 
L 163.423085 -52.2 
L 162.967109 -52.2 
L 162.511134 -52.2 
L 162.055158 -52.2 
L 161.599183 -52.2 
L 161.143207 -52.2 
L 160.687232 -52.2 
L 160.231256 -52.2 
L 159.775281 -52.2 
L 159.319305 -52.2 
L 158.86333 -52.2 
L 158.407354 -52.2 
L 157.951379 -52.2 
L 157.495403 -52.2 
L 157.039428 -52.2 
L 156.583453 -52.2 
L 156.127477 -52.2 
L 155.671502 -52.2 
L 155.215526 -52.2 
L 154.759551 -52.2 
L 154.303575 -52.2 
L 153.8476 -52.2 
L 153.391624 -52.2 
L 152.935649 -52.2 
L 152.479673 -52.2 
L 152.023698 -52.2 
L 151.567722 -52.2 
L 151.111747 -52.2 
L 150.655771 -52.2 
L 150.199796 -52.2 
L 149.74382 -52.2 
L 149.287845 -52.2 
L 148.831869 -52.2 
L 148.375894 -52.2 
L 147.919918 -52.2 
L 147.463943 -52.2 
L 147.007967 -52.2 
L 146.551992 -52.2 
L 146.096016 -52.2 
L 145.640041 -52.2 
L 145.184065 -52.2 
L 144.72809 -52.2 
L 144.272114 -52.2 
L 143.816139 -52.2 
L 143.360163 -52.2 
L 142.904188 -52.2 
L 142.448212 -52.2 
L 141.992237 -52.2 
L 141.536261 -52.2 
L 141.080286 -52.2 
L 140.624311 -52.2 
L 140.168335 -52.2 
L 139.71236 -52.2 
L 139.256384 -52.2 
L 138.800409 -52.2 
L 138.344433 -52.2 
L 137.888458 -52.2 
L 137.432482 -52.2 
L 136.976507 -52.2 
L 136.520531 -52.2 
L 136.064556 -52.2 
L 135.60858 -52.2 
L 135.152605 -52.2 
L 134.696629 -52.2 
L 134.240654 -52.2 
L 133.784678 -52.2 
L 133.328703 -52.2 
L 132.872727 -52.2 
L 132.416752 -52.2 
L 131.960776 -52.2 
L 131.504801 -52.2 
L 131.048825 -52.2 
L 130.59285 -52.2 
L 130.136874 -52.2 
L 129.680899 -52.2 
L 129.224923 -52.2 
L 128.768948 -52.2 
L 128.312972 -52.2 
L 127.856997 -52.2 
L 127.401021 -52.2 
L 126.945046 -52.2 
L 126.48907 -52.2 
L 126.033095 -52.2 
L 125.57712 -52.2 
L 125.121144 -52.2 
L 124.665169 -52.2 
L 124.209193 -52.2 
L 123.753218 -52.2 
L 123.297242 -52.2 
L 122.841267 -52.2 
L 122.385291 -52.2 
L 121.929316 -52.2 
L 121.47334 -52.2 
L 121.017365 -52.2 
L 120.561389 -52.2 
L 120.105414 -52.2 
L 119.649438 -52.2 
L 119.193463 -52.2 
L 118.737487 -52.2 
L 118.281512 -52.2 
L 117.825536 -52.2 
L 117.369561 -52.2 
L 116.913585 -52.2 
L 116.45761 -52.2 
L 116.001634 -52.2 
L 115.545659 -52.2 
L 115.089683 -52.2 
L 114.633708 -52.2 
L 114.177732 -52.2 
L 113.721757 -52.2 
L 113.265781 -52.2 
L 112.809806 -52.2 
L 112.35383 -52.2 
L 111.897855 -52.2 
L 111.441879 -52.2 
L 110.985904 -52.2 
L 110.529928 -52.2 
L 110.073953 -52.2 
L 109.617978 -52.2 
L 109.162002 -52.2 
L 108.706027 -52.2 
L 108.250051 -52.2 
L 107.794076 -52.2 
L 107.3381 -52.2 
L 106.882125 -52.2 
L 106.426149 -52.2 
L 105.970174 -52.2 
L 105.514198 -52.2 
L 105.058223 -52.2 
L 104.602247 -52.2 
L 104.146272 -52.2 
L 103.690296 -52.2 
L 103.234321 -52.2 
L 102.778345 -52.2 
L 102.32237 -52.2 
L 101.866394 -52.2 
L 101.410419 -52.2 
L 100.954443 -52.2 
L 100.498468 -52.2 
L 100.042492 -52.2 
L 99.586517 -52.2 
L 99.130541 -52.2 
L 98.674566 -52.2 
L 98.21859 -52.2 
L 97.762615 -52.2 
L 97.306639 -52.2 
L 96.850664 -52.2 
L 96.394688 -52.2 
L 95.938713 -52.2 
L 95.482737 -52.2 
L 95.026762 -52.2 
L 94.570787 -52.2 
L 94.114811 -52.2 
L 93.658836 -52.2 
L 93.20286 -52.2 
L 92.746885 -52.2 
L 92.290909 -52.2 
z
" style="stroke: #ff0000; stroke-opacity: 0.3"/>
    </defs>
    <g clip-path="url(#pf58245a54c)">
     <use xlink:href="#m1a10715ff3" x="0" y="360" style="fill: #ff0000; fill-opacity: 0.3; stroke: #ff0000; stroke-opacity: 0.3"/>
    </g>
   </g>
   <g id="line2d_23">
    <path d="M 92.290909 304.233933 
L 92.746885 272.737795 
L 93.20286 303.90192 
L 93.658836 281.681637 
L 94.114811 303.840437 
L 94.570787 303.639605 
L 95.026762 282.290328 
L 95.482737 297.433814 
L 95.938713 302.32385 
L 96.394688 293.009038 
L 96.850664 299.58575 
L 97.306639 294.740819 
L 97.762615 303.840437 
L 98.21859 292.416727 
L 98.674566 303.936745 
L 99.130541 299.93006 
L 99.586517 293.47425 
L 100.042492 301.405674 
L 100.498468 298.946318 
L 100.954443 304.24623 
L 101.410419 295.011348 
L 101.866394 301.405674 
L 102.32237 303.850667 
L 102.778345 290.338571 
L 103.234321 297.433814 
L 103.690296 292.361391 
L 104.146272 304.24623 
L 104.602247 178.437863 
L 105.058223 303.924448 
L 105.514198 303.916283 
L 105.970174 294.164936 
L 106.426149 235.730632 
L 106.882125 303.987998 
L 107.3381 302.635352 
L 107.794076 267.382547 
L 108.250051 282.222695 
L 108.706027 304.244164 
L 109.162002 303.840437 
L 109.617978 298.946318 
L 110.073953 302.270531 
L 110.529928 303.13952 
L 110.985904 297.470704 
L 111.441879 303.916283 
L 111.897855 287.348387 
L 112.35383 303.924448 
L 112.809806 303.840437 
L 113.265781 300.175996 
L 113.721757 303.987998 
L 114.177732 297.136625 
L 114.633708 299.044692 
L 115.089683 288.27886 
L 115.545659 303.963404 
L 116.001634 270.059113 
L 116.45761 295.011348 
L 116.913585 277.314214 
L 117.825536 302.635352 
L 118.281512 304.244164 
L 119.193463 284.731239 
L 119.649438 304.244164 
L 120.105414 268.450301 
L 120.561389 266.741048 
L 121.017365 294.076792 
L 121.47334 294.164936 
L 121.929316 300.301029 
L 122.385291 302.635352 
L 122.841267 303.787167 
L 123.297242 303.90192 
L 123.753218 303.539165 
L 124.209193 302.635352 
L 124.665169 284.731239 
L 125.121144 271.647464 
L 125.57712 300.690395 
L 126.033095 280.011341 
L 126.48907 304.037185 
L 127.401021 303.840437 
L 127.856997 293.535734 
L 128.312972 301.663906 
L 128.768948 303.373159 
L 129.224923 303.127223 
L 129.680899 303.969553 
L 130.136874 284.632864 
L 130.59285 302.635352 
L 131.048825 300.003841 
L 131.504801 290.891926 
L 131.960776 303.840437 
L 132.416752 178.437863 
L 132.872727 303.840437 
L 133.784678 303.936745 
L 134.240654 277.709777 
L 134.696629 297.679749 
L 135.152605 304.233933 
L 135.60858 303.840437 
L 136.520531 276.635874 
L 136.976507 296.486961 
L 137.432482 295.011348 
L 137.888458 303.916283 
L 138.344433 303.916283 
L 138.800409 269.784501 
L 139.256384 303.543248 
L 139.71236 303.90192 
L 141.536261 303.916283 
L 141.992237 295.92131 
L 142.448212 282.222695 
L 142.904188 300.690395 
L 143.360163 303.840437 
L 143.816139 302.967365 
L 144.272114 300.688378 
L 144.72809 303.90192 
L 145.184065 303.987998 
L 145.640041 297.470704 
L 146.096016 186.051637 
L 146.551992 292.416727 
L 147.007967 271.647464 
L 147.463943 303.840437 
L 147.919918 293.009038 
L 148.375894 301.405674 
L 148.831869 269.784501 
L 149.287845 302.270531 
L 149.74382 303.987998 
L 150.199796 304.287203 
L 150.655771 296.802595 
L 151.111747 304.369198 
L 151.567722 303.916283 
L 152.023698 304.332308 
L 152.479673 300.667867 
L 152.935649 295.011348 
L 153.391624 301.405674 
L 153.8476 300.399404 
L 154.303575 294.872001 
L 154.759551 281.681637 
L 155.215526 303.26657 
L 155.671502 268.843798 
L 156.127477 300.301029 
L 156.583453 303.987998 
L 157.039428 300.003841 
L 157.495403 304.479869 
L 157.951379 302.143481 
L 158.407354 289.723732 
L 158.86333 303.96547 
L 159.319305 290.891926 
L 159.775281 295.011348 
L 160.231256 301.405674 
L 160.687232 301.639313 
L 161.143207 275.041375 
L 161.599183 303.840437 
L 162.055158 300.667867 
L 162.511134 304.203192 
L 162.967109 277.609337 
L 163.423085 303.996212 
L 163.87906 303.840437 
L 164.335036 303.539165 
L 164.791011 273.590355 
L 165.246987 299.880873 
L 165.702962 300.053028 
L 166.158938 303.975701 
L 166.614913 303.539165 
L 167.070889 288.27886 
L 167.526864 297.704343 
L 167.98284 280.747082 
L 168.438815 294.076792 
L 168.894791 295.048238 
L 169.350766 280.011341 
L 169.806742 291.322313 
L 170.262717 293.47425 
L 170.718693 302.32385 
L 171.174668 303.90192 
L 171.630644 292.701619 
L 172.086619 303.936745 
L 172.542594 295.273663 
L 172.99857 293.677147 
L 173.910521 307.8 
L 174.366496 273.590355 
L 174.822472 300.397338 
L 175.278447 292.361391 
L 175.734423 288.617022 
L 176.190398 296.966536 
L 176.646374 283.206438 
L 177.102349 300.175996 
L 177.558325 294.740819 
L 178.0143 300.175996 
L 178.470276 303.916283 
L 178.926251 301.405674 
L 179.382227 301.405674 
L 179.838202 303.936745 
L 180.294178 295.011348 
L 180.750153 294.164936 
L 181.206129 235.730632 
L 181.662104 303.987998 
L 182.11808 303.666216 
L 182.574055 303.987998 
L 183.030031 301.405674 
L 183.486006 303.127223 
L 183.941982 273.590355 
L 184.397957 304.604903 
L 185.309908 303.840437 
L 185.765884 302.653797 
L 186.221859 300.003841 
L 186.677835 298.558969 
L 187.13381 303.987998 
L 187.589785 292.551991 
L 188.045761 304.332308 
L 188.501736 297.470704 
L 188.957712 304.233933 
L 189.413687 301.405674 
L 189.869663 303.987998 
L 190.325638 252.083285 
L 190.781614 303.90192 
L 191.237589 294.519476 
L 191.693565 270.274307 
L 192.14954 302.635352 
L 192.605516 303.840437 
L 193.061491 301.405674 
L 193.517467 303.840437 
L 193.973442 303.916283 
L 194.429418 263.531588 
L 194.885393 303.201004 
L 195.341369 302.635352 
L 195.797344 304.233933 
L 196.25332 301.405674 
L 196.709295 295.273663 
L 197.165271 266.741048 
L 197.621246 303.975701 
L 198.077222 301.159738 
L 198.533197 292.361391 
L 198.989173 302.635352 
L 199.445148 304.086372 
L 199.901124 295.011348 
L 200.357099 294.88838 
L 200.813075 302.635352 
L 202.181001 300.175996 
L 202.636977 302.635352 
L 203.092952 304.295417 
L 203.548927 304.24623 
L 204.004903 263.531588 
L 204.460878 303.975701 
L 204.916854 300.667867 
L 205.372829 281.9501 
L 205.828805 295.011348 
L 206.28478 304.233933 
L 206.740756 302.653797 
L 207.196731 294.740819 
L 207.652707 299.880873 
L 208.108682 297.858053 
L 208.564658 300.301029 
L 209.020633 268.843798 
L 209.476609 265.253138 
L 209.932584 55.8 
L 210.38856 295.011348 
L 210.844535 303.987998 
L 211.300511 292.361391 
L 211.756486 268.622456 
L 212.212462 307.8 
L 212.668437 303.987998 
L 213.124413 302.635352 
L 213.580388 288.27886 
L 214.036364 303.975701 
L 214.492339 232.316209 
L 214.948315 241.08588 
L 215.40429 292.551991 
L 215.860266 307.8 
L 216.316241 298.208511 
L 216.772217 293.191424 
L 217.228192 303.987998 
L 217.684168 269.454554 
L 218.140143 303.987998 
L 218.596118 307.8 
L 219.052094 293.47425 
L 219.508069 297.839607 
L 219.964045 303.987998 
L 220.42002 303.936745 
L 220.875996 303.127223 
L 221.331971 303.840437 
L 221.787947 295.011348 
L 222.243922 303.539165 
L 222.699898 303.127223 
L 223.155873 303.916283 
L 223.611849 301.405674 
L 224.067824 303.987998 
L 224.5238 269.015953 
L 224.979775 263.000761 
L 225.435751 301.467158 
L 225.891726 303.44694 
L 226.347702 303.916283 
L 226.803677 294.164936 
L 227.259653 304.244164 
L 227.715628 233.256913 
L 228.171604 292.797927 
L 228.627579 186.051637 
L 229.083555 303.987998 
L 229.53953 296.363994 
L 229.995506 307.8 
L 230.451481 301.72539 
L 230.907457 303.840437 
L 231.363432 233.256913 
L 231.819408 253.259693 
L 232.275383 254.235222 
L 232.731359 295.99509 
L 233.643309 266.896824 
L 234.099285 178.745283 
L 234.55526 295.011348 
L 235.011236 303.916283 
L 235.467211 294.88838 
L 235.923187 303.936745 
L 236.379162 295.011348 
L 236.835138 300.913803 
L 237.291113 226.706811 
L 237.747089 241.643318 
L 238.203064 304.233933 
L 238.65904 303.916283 
L 239.115015 301.72539 
L 239.570991 293.535734 
L 240.026966 273.590355 
L 240.482942 241.08588 
L 240.938917 304.731953 
L 241.850868 297.704343 
L 242.306844 279.281699 
L 242.762819 296.363994 
L 243.218795 293.78167 
L 243.67477 232.316209 
L 244.130746 298.946318 
L 244.586721 242.061408 
L 245.042697 303.916283 
L 245.954648 241.643318 
L 246.410623 303.840437 
L 246.866599 290.338571 
L 247.322574 295.011348 
L 247.77855 178.437863 
L 248.234525 301.405674 
L 250.058427 301.405674 
L 250.514402 299.880873 
L 250.970378 299.979247 
L 251.426353 303.539165 
L 251.882329 303.262488 
L 252.338304 290.584507 
L 252.79428 304.244164 
L 253.250255 299.044692 
L 253.706231 304.24623 
L 254.162206 303.127223 
L 254.618182 280.747082 
L 255.074157 301.405674 
L 255.530133 303.924448 
L 255.986108 303.924448 
L 256.442084 294.076792 
L 256.898059 294.164936 
L 257.354035 300.690395 
L 257.81001 304.332308 
L 258.265986 300.175996 
L 258.721961 304.233933 
L 259.177937 270.786689 
L 259.633912 304.244164 
L 260.089888 303.987998 
L 260.545863 273.713323 
L 261.001839 280.529822 
L 261.457814 304.604903 
L 261.91379 303.840437 
L 262.369765 241.08588 
L 262.825741 297.433814 
L 263.281716 267.382547 
L 263.737692 304.233933 
L 264.193667 203.769232 
L 264.649642 305.826367 
L 265.105618 303.975701 
L 265.561593 195.886996 
L 266.017569 300.05711 
L 266.473544 303.90192 
L 266.92952 282.222695 
L 267.385495 303.916283 
L 267.841471 271.647464 
L 268.297446 284.731239 
L 268.753422 301.405674 
L 269.209397 303.998229 
L 269.665373 301.897545 
L 270.121348 248.775451 
L 270.577324 303.96547 
L 271.033299 303.90192 
L 271.489275 252.083285 
L 271.94525 299.58575 
L 272.401226 303.96547 
L 272.857201 303.936745 
L 273.313177 295.011348 
L 273.769152 302.635352 
L 274.225128 301.577829 
L 274.681103 303.90192 
L 275.137079 303.840437 
L 275.593054 302.967365 
L 276.04903 300.003841 
L 276.505005 303.539165 
L 276.960981 297.470704 
L 277.416956 303.987998 
L 277.872932 298.577414 
L 278.328907 303.975701 
L 278.784883 295.273663 
L 279.240858 303.916283 
L 279.696834 304.426599 
L 280.152809 263.531588 
L 280.608784 307.8 
L 281.06476 303.90192 
L 281.520735 303.840437 
L 281.976711 291.814185 
L 282.432686 301.405674 
L 282.888662 301.405674 
L 283.344637 295.92131 
L 283.800613 303.916283 
L 284.256588 303.996212 
L 284.712564 303.926514 
L 285.624515 297.858053 
L 286.08049 304.233933 
L 286.536466 295.011348 
L 286.992441 295.011348 
L 287.448417 303.987998 
L 287.904392 303.840437 
L 288.360368 294.740819 
L 288.816343 299.880873 
L 289.272319 295.011348 
L 289.728294 304.295417 
L 290.18427 280.304398 
L 290.640245 248.775451 
L 291.096221 290.891926 
L 291.552196 298.577414 
L 292.008172 178.437863 
L 292.464147 302.635352 
L 292.920123 294.88838 
L 293.376098 303.127223 
L 293.832074 303.975701 
L 294.288049 301.405674 
L 294.744025 303.809695 
L 295.2 267.536256 
L 295.655975 298.208511 
L 296.111951 294.740819 
L 296.567926 298.327396 
L 297.023902 292.797927 
L 297.479877 294.150573 
L 297.935853 297.978954 
L 298.391828 294.150573 
L 298.847804 263.972206 
L 299.303779 303.840437 
L 299.759755 303.916283 
L 300.21573 294.740819 
L 300.671706 282.290328 
L 301.127681 302.635352 
L 301.583657 303.987998 
L 302.039632 294.740819 
L 302.495608 303.840437 
L 302.951583 288.862957 
L 303.407559 301.405674 
L 303.863534 303.840437 
L 304.31951 304.332308 
L 304.775485 307.8 
L 305.231461 294.740819 
L 305.687436 304.000295 
L 306.143412 298.327396 
L 306.599387 304.233933 
L 307.055363 303.539165 
L 307.511338 294.150573 
L 307.967314 301.016259 
L 308.423289 302.961217 
L 308.879265 282.222695 
L 309.33524 297.470704 
L 309.791216 304.334374 
L 310.247191 304.100735 
L 310.703166 301.756132 
L 311.159142 284.731239 
L 311.615117 307.8 
L 312.071093 303.840437 
L 312.527068 303.084184 
L 312.983044 263.000761 
L 313.439019 295.273663 
L 313.894995 263.531588 
L 314.35097 293.191424 
L 314.806946 303.840437 
L 315.262921 299.979247 
L 315.718897 297.978954 
L 316.174872 304.233933 
L 317.086823 283.450308 
L 317.542799 303.840437 
L 317.998774 300.688378 
L 318.45475 269.302861 
L 318.910725 300.372744 
L 319.366701 233.256913 
L 319.822676 303.96547 
L 320.278652 303.539165 
L 320.734627 303.987998 
L 321.190603 304.047416 
L 321.646578 303.084184 
L 322.102554 265.253138 
L 322.558529 254.235222 
L 323.014505 295.011348 
L 323.47048 294.740819 
L 323.926456 296.7206 
L 324.382431 280.011341 
L 324.838407 303.987998 
L 325.294382 303.840437 
L 325.750358 294.869935 
L 326.206333 278.582848 
L 326.662308 304.113032 
L 327.118284 291.066147 
L 327.574259 302.635352 
L 328.030235 295.92131 
L 328.48621 295.011348 
L 328.942186 303.916283 
L 329.398161 261.810039 
L 329.854137 303.916283 
L 330.310112 304.24623 
L 330.766088 279.281699 
L 331.222063 304.244164 
L 331.678039 303.987998 
L 332.134014 302.635352 
L 332.58999 198.713189 
L 333.045965 303.90192 
L 333.501941 302.143481 
L 333.957916 295.011348 
L 334.413892 304.244164 
L 334.869867 304.244164 
L 335.325843 296.802595 
L 335.781818 303.539165 
L 336.237794 294.88838 
L 336.693769 294.740819 
L 337.149745 255.452603 
L 337.60572 300.667867 
L 338.061696 283.452374 
L 338.517671 272.877142 
L 338.973647 292.416727 
L 339.429622 292.416727 
L 339.885598 295.011348 
L 340.341573 255.452603 
L 340.797549 295.011348 
L 341.253524 295.011348 
L 341.709499 300.981435 
L 342.165475 297.704343 
L 342.62145 289.723732 
L 343.077426 253.259693 
L 343.533401 295.011348 
L 343.989377 303.949042 
L 344.445352 304.24623 
L 344.901328 303.975701 
L 345.357303 294.740819 
L 345.813279 288.321899 
L 346.269254 195.886996 
L 346.72523 268.622456 
L 347.181205 299.24144 
L 347.637181 303.987998 
L 348.093156 303.916283 
L 348.549132 301.159738 
L 349.005107 303.840437 
L 349.461083 303.840437 
L 349.917058 295.92131 
L 350.373034 303.916283 
L 350.829009 297.433814 
L 351.284985 304.244164 
L 351.74096 303.936745 
L 352.196936 302.635352 
L 352.652911 282.478862 
L 353.108887 294.820748 
L 353.564862 303.987998 
L 354.020838 303.840437 
L 354.476813 300.667867 
L 354.932789 301.405674 
L 355.388764 280.304398 
L 355.84474 300.688378 
L 356.300715 303.90192 
L 356.756691 293.043863 
L 357.212666 253.259693 
L 357.668641 295.011348 
L 358.124617 288.063666 
L 358.580592 303.514572 
L 359.036568 268.622456 
L 359.492543 300.421931 
L 359.948519 268.843798 
L 360.404494 303.840437 
L 360.86047 303.840437 
L 361.316445 304.295417 
L 361.772421 269.302861 
L 362.228396 304.233933 
L 362.684372 303.987998 
L 363.140347 295.011348 
L 363.596323 295.92131 
L 364.052298 291.568249 
L 364.508274 307.8 
L 364.964249 304.24623 
L 365.420225 279.798164 
L 365.8762 294.519476 
L 366.332176 303.916283 
L 366.788151 286.944659 
L 367.244127 303.840437 
L 367.700102 294.740819 
L 368.156078 300.151402 
L 368.612053 303.916283 
L 369.068029 292.797927 
L 369.524004 287.348387 
L 369.97998 232.316209 
L 370.435955 292.416727 
L 370.891931 304.332308 
L 371.347906 300.175996 
L 371.803882 303.987998 
L 372.259857 303.840437 
L 372.715832 275.828369 
L 373.171808 300.717054 
L 373.627783 299.880873 
L 374.083759 288.617022 
L 374.539734 302.635352 
L 374.99571 300.690395 
L 375.451685 281.9501 
L 375.907661 300.05711 
L 376.363636 303.936745 
L 376.819612 299.880873 
L 377.275587 291.902328 
L 377.731563 301.72539 
L 378.187538 269.454554 
L 378.643514 303.916283 
L 379.099489 303.996212 
L 379.555465 293.043863 
L 380.01144 304.330242 
L 380.467416 292.797927 
L 380.923391 307.8 
L 381.379367 294.076792 
L 381.835342 301.405674 
L 382.291318 303.90192 
L 382.747293 294.88838 
L 383.203269 288.27886 
L 383.659244 299.880873 
L 384.11522 303.936745 
L 384.571195 273.713323 
L 385.027171 294.076792 
L 385.483146 280.011341 
L 385.939122 298.327396 
L 386.395097 270.059113 
L 386.851073 303.916283 
L 387.307048 290.338571 
L 387.763023 304.086372 
L 388.218999 304.086372 
L 388.674974 303.916283 
L 389.13095 296.486961 
L 389.586925 303.651902 
L 390.042901 303.949042 
L 390.498876 304.479869 
L 390.954852 271.647464 
L 391.410827 303.916283 
L 391.866803 300.175996 
L 392.322778 301.405674 
L 392.778754 252.083285 
L 393.234729 242.061408 
L 393.690705 304.24623 
L 394.14668 295.214245 
L 394.602656 304.113032 
L 395.058631 303.90192 
L 395.514607 271.647464 
L 395.970582 301.405674 
L 396.426558 303.975701 
L 396.882533 303.840437 
L 397.338509 282.222695 
L 397.794484 288.617022 
L 398.25046 282.222695 
L 398.706435 302.635352 
L 399.162411 301.405674 
L 399.618386 307.8 
L 400.074362 303.975701 
L 400.530337 303.840437 
L 400.986313 302.959151 
L 401.442288 284.731239 
L 401.898264 55.8 
L 402.354239 303.797398 
L 402.810215 270.059113 
L 403.26619 303.262488 
L 403.722165 284.731239 
L 404.178141 288.617022 
L 404.634116 287.348387 
L 405.090092 288.27886 
L 405.546067 302.797276 
L 406.002043 303.96547 
L 406.458018 203.849161 
L 406.913994 279.763339 
L 407.369969 301.200711 
L 407.825945 280.011341 
L 408.28192 304.24623 
L 408.737896 294.740819 
L 409.193871 301.159738 
L 409.649847 303.840437 
L 410.105822 303.996212 
L 410.561798 253.259693 
L 411.017773 304.037185 
L 411.473749 195.886996 
L 411.929724 294.869935 
L 412.3857 300.690395 
L 412.841675 303.99208 
L 413.297651 303.936745 
L 413.753626 295.011348 
L 414.209602 301.159738 
L 414.665577 294.869935 
L 415.121553 233.256913 
L 415.577528 300.301029 
L 416.033504 283.450308 
L 416.489479 294.740819 
L 416.945455 282.222695 
L 417.40143 303.135437 
L 417.857406 301.405674 
L 418.313381 304.037185 
L 418.769356 195.886996 
L 419.225332 302.635352 
L 419.681307 300.175996 
L 420.137283 303.975701 
L 420.593258 291.568249 
L 421.049234 304.330242 
L 421.505209 301.405674 
L 421.961185 301.405674 
L 422.41716 281.681637 
L 422.873136 303.539165 
L 423.329111 297.470704 
L 423.785087 303.994146 
L 424.241062 295.011348 
L 424.697038 303.90192 
L 425.153013 203.849161 
L 425.608989 298.558969 
L 426.064964 307.8 
L 426.52094 301.405674 
L 426.976915 301.405674 
L 427.432891 299.880873 
L 427.888866 290.891926 
L 428.344842 55.8 
L 428.800817 303.916283 
L 429.256793 303.916283 
L 429.712768 293.043863 
L 430.168744 269.015953 
L 430.624719 178.745283 
L 431.080695 299.880873 
L 431.53667 303.90192 
L 431.992646 272.877142 
L 432.448621 297.839607 
L 432.904597 301.405674 
L 433.360572 281.681637 
L 433.816547 303.987998 
L 434.272523 296.486961 
L 434.728498 301.663906 
L 435.184474 303.127223 
L 435.640449 303.916283 
L 436.096425 275.828369 
L 436.5524 300.667867 
L 437.008376 303.96547 
L 437.464351 302.143481 
L 437.920327 303.840437 
L 438.376302 265.253138 
L 438.832278 300.667867 
L 439.288253 304.295417 
L 439.744229 304.244164 
L 440.200204 248.775451 
L 440.65618 303.975701 
L 441.112155 269.454554 
L 442.024106 303.987998 
L 442.480082 295.92131 
L 442.936057 303.686727 
L 443.392033 303.127223 
L 443.848008 303.936745 
L 444.303984 302.635352 
L 444.759959 304.24623 
L 445.215935 296.486961 
L 445.67191 303.987998 
L 446.127886 303.987998 
L 446.583861 301.663906 
L 447.039837 303.994146 
L 447.495812 203.849161 
L 447.951788 304.244164 
L 448.407763 279.763339 
L 448.863739 293.043863 
L 449.319714 296.265619 
L 449.775689 304.332308 
L 450.68764 304.113032 
L 451.143616 293.47425 
L 451.599591 297.679749 
L 452.055567 268.843798 
L 452.511542 303.987998 
L 452.967518 295.011348 
L 453.423493 273.590355 
L 453.879469 292.701619 
L 454.335444 303.916283 
L 454.79142 301.405674 
L 455.247395 295.046172 
L 455.703371 303.528934 
L 456.159346 304.244164 
L 456.615322 295.92131 
L 457.071297 301.405674 
L 457.527273 294.88838 
L 457.983248 248.775451 
L 458.439224 303.61088 
L 458.895199 304.369198 
L 459.351175 303.975701 
L 459.80715 307.8 
L 460.263126 303.975701 
L 460.719101 301.405674 
L 461.175077 281.681637 
L 461.631052 303.920366 
L 462.087028 295.92131 
L 462.543003 302.635352 
L 462.998979 292.416727 
L 463.454954 303.840437 
L 463.91093 307.8 
L 464.366905 303.90192 
L 464.82288 289.598698 
L 465.278856 304.62743 
L 465.734831 294.076792 
L 466.190807 261.810039 
L 466.646782 303.539165 
L 467.102758 307.8 
L 467.558733 301.663906 
L 468.014709 288.27886 
L 468.470684 304.381495 
L 468.92666 280.011341 
L 469.382635 289.598698 
L 469.838611 303.987998 
L 470.294586 268.450301 
L 470.750562 300.690395 
L 471.206537 298.577414 
L 471.662513 304.244164 
L 472.574464 303.717469 
L 473.030439 266.896824 
L 473.486415 303.539165 
L 473.94239 303.840437 
L 474.398366 280.011341 
L 475.310317 303.90192 
L 475.766292 302.635352 
L 476.222268 292.551991 
L 476.678243 304.633579 
L 477.134219 303.539165 
L 477.590194 304.086372 
L 478.04617 273.590355 
L 478.502145 303.916283 
L 478.958121 291.568249 
L 479.414096 263.972206 
L 479.870072 292.416727 
L 480.326047 303.975701 
L 480.782022 300.301029 
L 481.237998 288.420273 
L 482.149949 303.201004 
L 482.605924 226.706811 
L 483.0619 294.740819 
L 483.517875 298.327396 
L 483.973851 304.244164 
L 484.429826 300.860533 
L 484.885802 302.143481 
L 485.341777 295.046172 
L 485.797753 273.590355 
L 486.253728 301.405674 
L 486.709704 301.405674 
L 487.165679 300.983501 
L 487.621655 282.962568 
L 488.07763 303.127223 
L 488.533606 302.32385 
L 488.989581 303.916283 
L 489.445557 281.9501 
L 489.901532 305.340644 
L 490.357508 303.373159 
L 490.813483 295.99509 
L 491.269459 304.24623 
L 491.725434 302.957134 
L 492.18141 303.916283 
L 492.637385 303.916283 
L 493.093361 266.896824 
L 493.549336 295.011348 
L 494.005312 303.916283 
L 494.461287 302.627138 
L 494.917263 302.635352 
L 495.373238 304.332308 
L 495.829213 293.47425 
L 496.285189 301.405674 
L 496.741164 293.043863 
L 497.19714 296.265619 
L 497.653115 293.043863 
L 498.109091 303.987998 
L 498.109091 303.987998 
" clip-path="url(#pf58245a54c)" style="fill: none; stroke: #ffc0cb; stroke-width: 1.5; stroke-linecap: round"/>
   </g>
   <g id="patch_3">
    <path d="M 72 320.4 
L 72 43.2 
" style="fill: none"/>
   </g>
   <g id="patch_4">
    <path d="M 518.4 320.4 
L 518.4 43.2 
" style="fill: none"/>
   </g>
   <g id="patch_5">
    <path d="M 72 320.4 
L 518.4 320.4 
" style="fill: none"/>
   </g>
   <g id="patch_6">
    <path d="M 72 43.2 
L 518.4 43.2 
" style="fill: none"/>
   </g>
   <g id="text_12">
    <!-- Fare with Fill -->
    <g style="fill: #e6e6e6" transform="translate(261.196875 37.2) scale(0.12 -0.12)">
     <defs>
      <path id="ArialMT-46" d="M 525 0 
L 525 4581 
L 3616 4581 
L 3616 4041 
L 1131 4041 
L 1131 2622 
L 3281 2622 
L 3281 2081 
L 1131 2081 
L 1131 0 
L 525 0 
z
" transform="scale(0.015625)"/>
      <path id="ArialMT-61" d="M 2588 409 
Q 2275 144 1986 34 
Q 1697 -75 1366 -75 
Q 819 -75 525 192 
Q 231 459 231 875 
Q 231 1119 342 1320 
Q 453 1522 633 1644 
Q 813 1766 1038 1828 
Q 1203 1872 1538 1913 
Q 2219 1994 2541 2106 
Q 2544 2222 2544 2253 
Q 2544 2597 2384 2738 
Q 2169 2928 1744 2928 
Q 1347 2928 1158 2789 
Q 969 2650 878 2297 
L 328 2372 
Q 403 2725 575 2942 
Q 747 3159 1072 3276 
Q 1397 3394 1825 3394 
Q 2250 3394 2515 3294 
Q 2781 3194 2906 3042 
Q 3031 2891 3081 2659 
Q 3109 2516 3109 2141 
L 3109 1391 
Q 3109 606 3145 398 
Q 3181 191 3288 0 
L 2700 0 
Q 2613 175 2588 409 
z
M 2541 1666 
Q 2234 1541 1622 1453 
Q 1275 1403 1131 1340 
Q 988 1278 909 1158 
Q 831 1038 831 891 
Q 831 666 1001 516 
Q 1172 366 1500 366 
Q 1825 366 2078 508 
Q 2331 650 2450 897 
Q 2541 1088 2541 1459 
L 2541 1666 
z
" transform="scale(0.015625)"/>
      <path id="ArialMT-72" d="M 416 0 
L 416 3319 
L 922 3319 
L 922 2816 
Q 1116 3169 1280 3281 
Q 1444 3394 1641 3394 
Q 1925 3394 2219 3213 
L 2025 2691 
Q 1819 2813 1613 2813 
Q 1428 2813 1281 2702 
Q 1134 2591 1072 2394 
Q 978 2094 978 1738 
L 978 0 
L 416 0 
z
" transform="scale(0.015625)"/>
      <path id="ArialMT-65" d="M 2694 1069 
L 3275 997 
Q 3138 488 2766 206 
Q 2394 -75 1816 -75 
Q 1088 -75 661 373 
Q 234 822 234 1631 
Q 234 2469 665 2931 
Q 1097 3394 1784 3394 
Q 2450 3394 2872 2941 
Q 3294 2488 3294 1666 
Q 3294 1616 3291 1516 
L 816 1516 
Q 847 969 1125 678 
Q 1403 388 1819 388 
Q 2128 388 2347 550 
Q 2566 713 2694 1069 
z
M 847 1978 
L 2700 1978 
Q 2663 2397 2488 2606 
Q 2219 2931 1791 2931 
Q 1403 2931 1139 2672 
Q 875 2413 847 1978 
z
" transform="scale(0.015625)"/>
      <path id="ArialMT-20" transform="scale(0.015625)"/>
      <path id="ArialMT-77" d="M 1034 0 
L 19 3319 
L 600 3319 
L 1128 1403 
L 1325 691 
Q 1338 744 1497 1375 
L 2025 3319 
L 2603 3319 
L 3100 1394 
L 3266 759 
L 3456 1400 
L 4025 3319 
L 4572 3319 
L 3534 0 
L 2950 0 
L 2422 1988 
L 2294 2553 
L 1622 0 
L 1034 0 
z
" transform="scale(0.015625)"/>
      <path id="ArialMT-69" d="M 425 3934 
L 425 4581 
L 988 4581 
L 988 3934 
L 425 3934 
z
M 425 0 
L 425 3319 
L 988 3319 
L 988 0 
L 425 0 
z
" transform="scale(0.015625)"/>
      <path id="ArialMT-74" d="M 1650 503 
L 1731 6 
Q 1494 -44 1306 -44 
Q 1000 -44 831 53 
Q 663 150 594 308 
Q 525 466 525 972 
L 525 2881 
L 113 2881 
L 113 3319 
L 525 3319 
L 525 4141 
L 1084 4478 
L 1084 3319 
L 1650 3319 
L 1650 2881 
L 1084 2881 
L 1084 941 
Q 1084 700 1114 631 
Q 1144 563 1211 522 
Q 1278 481 1403 481 
Q 1497 481 1650 503 
z
" transform="scale(0.015625)"/>
      <path id="ArialMT-68" d="M 422 0 
L 422 4581 
L 984 4581 
L 984 2938 
Q 1378 3394 1978 3394 
Q 2347 3394 2619 3248 
Q 2891 3103 3008 2847 
Q 3125 2591 3125 2103 
L 3125 0 
L 2563 0 
L 2563 2103 
Q 2563 2525 2380 2717 
Q 2197 2909 1863 2909 
Q 1613 2909 1392 2779 
Q 1172 2650 1078 2428 
Q 984 2206 984 1816 
L 984 0 
L 422 0 
z
" transform="scale(0.015625)"/>
      <path id="ArialMT-6c" d="M 409 0 
L 409 4581 
L 972 4581 
L 972 0 
L 409 0 
z
" transform="scale(0.015625)"/>
     </defs>
     <use xlink:href="#ArialMT-46"/>
     <use xlink:href="#ArialMT-61" transform="translate(61.083984 0)"/>
     <use xlink:href="#ArialMT-72" transform="translate(116.699219 0)"/>
     <use xlink:href="#ArialMT-65" transform="translate(150 0)"/>
     <use xlink:href="#ArialMT-20" transform="translate(205.615234 0)"/>
     <use xlink:href="#ArialMT-77" transform="translate(233.398438 0)"/>
     <use xlink:href="#ArialMT-69" transform="translate(305.615234 0)"/>
     <use xlink:href="#ArialMT-74" transform="translate(327.832031 0)"/>
     <use xlink:href="#ArialMT-68" transform="translate(355.615234 0)"/>
     <use xlink:href="#ArialMT-20" transform="translate(411.230469 0)"/>
     <use xlink:href="#ArialMT-46" transform="translate(439.013672 0)"/>
     <use xlink:href="#ArialMT-69" transform="translate(500.097656 0)"/>
     <use xlink:href="#ArialMT-6c" transform="translate(522.314453 0)"/>
     <use xlink:href="#ArialMT-6c" transform="translate(544.53125 0)"/>
    </g>
   </g>
  </g>
 </g>
 <defs>
  <clipPath id="pf58245a54c">
   <rect x="72" y="43.2" width="446.4" height="277.2"/>
  </clipPath>
 </defs>
</svg>
